<?xml version="1.0" encoding="utf-8" standalone="no"?>
<!DOCTYPE svg PUBLIC "-//W3C//DTD SVG 1.1//EN"
  "http://www.w3.org/Graphics/SVG/1.1/DTD/svg11.dtd">
<!-- Created with matplotlib (https://matplotlib.org/) -->
<svg height="345.6pt" version="1.1" viewBox="0 0 460.8 345.6" width="460.8pt" xmlns="http://www.w3.org/2000/svg" xmlns:xlink="http://www.w3.org/1999/xlink">
 <metadata>
  <rdf:RDF xmlns:cc="http://creativecommons.org/ns#" xmlns:dc="http://purl.org/dc/elements/1.1/" xmlns:rdf="http://www.w3.org/1999/02/22-rdf-syntax-ns#">
   <cc:Work>
    <dc:type rdf:resource="http://purl.org/dc/dcmitype/StillImage"/>
    <dc:date>2021-06-23T14:42:56.162556</dc:date>
    <dc:format>image/svg+xml</dc:format>
    <dc:creator>
     <cc:Agent>
      <dc:title>Matplotlib v3.3.4, https://matplotlib.org/</dc:title>
     </cc:Agent>
    </dc:creator>
   </cc:Work>
  </rdf:RDF>
 </metadata>
 <defs>
  <style type="text/css">*{stroke-linecap:butt;stroke-linejoin:round;}</style>
 </defs>
 <g id="figure_1">
  <g id="patch_1">
   <path d="M 0 345.6 
L 460.8 345.6 
L 460.8 0 
L 0 0 
z
" style="fill:#ffffff;"/>
  </g>
  <g id="axes_1">
   <g id="patch_2">
    <path d="M 57.6 307.584 
L 414.72 307.584 
L 414.72 41.472 
L 57.6 41.472 
z
" style="fill:#ffffff;"/>
   </g>
   <g id="matplotlib.axis_1">
    <g id="xtick_1">
     <g id="line2d_1">
      <defs>
       <path d="M 0 0 
L 0 3.5 
" id="m9efb2db303" style="stroke:#000000;stroke-width:0.8;"/>
      </defs>
      <g>
       <use style="stroke:#000000;stroke-width:0.8;" x="73.832727" xlink:href="#m9efb2db303" y="307.584"/>
      </g>
     </g>
     <g id="text_1">
      <!-- 0 -->
      <g transform="translate(70.651477 322.182437)scale(0.1 -0.1)">
       <defs>
        <path d="M 31.78125 66.40625 
Q 24.171875 66.40625 20.328125 58.90625 
Q 16.5 51.421875 16.5 36.375 
Q 16.5 21.390625 20.328125 13.890625 
Q 24.171875 6.390625 31.78125 6.390625 
Q 39.453125 6.390625 43.28125 13.890625 
Q 47.125 21.390625 47.125 36.375 
Q 47.125 51.421875 43.28125 58.90625 
Q 39.453125 66.40625 31.78125 66.40625 
z
M 31.78125 74.21875 
Q 44.046875 74.21875 50.515625 64.515625 
Q 56.984375 54.828125 56.984375 36.375 
Q 56.984375 17.96875 50.515625 8.265625 
Q 44.046875 -1.421875 31.78125 -1.421875 
Q 19.53125 -1.421875 13.0625 8.265625 
Q 6.59375 17.96875 6.59375 36.375 
Q 6.59375 54.828125 13.0625 64.515625 
Q 19.53125 74.21875 31.78125 74.21875 
z
" id="DejaVuSans-48"/>
       </defs>
       <use xlink:href="#DejaVuSans-48"/>
      </g>
     </g>
    </g>
    <g id="xtick_2">
     <g id="line2d_2">
      <g>
       <use style="stroke:#000000;stroke-width:0.8;" x="132.223833" xlink:href="#m9efb2db303" y="307.584"/>
      </g>
     </g>
     <g id="text_2">
      <!-- 500 -->
      <g transform="translate(122.680083 322.182437)scale(0.1 -0.1)">
       <defs>
        <path d="M 10.796875 72.90625 
L 49.515625 72.90625 
L 49.515625 64.59375 
L 19.828125 64.59375 
L 19.828125 46.734375 
Q 21.96875 47.46875 24.109375 47.828125 
Q 26.265625 48.1875 28.421875 48.1875 
Q 40.625 48.1875 47.75 41.5 
Q 54.890625 34.8125 54.890625 23.390625 
Q 54.890625 11.625 47.5625 5.09375 
Q 40.234375 -1.421875 26.90625 -1.421875 
Q 22.3125 -1.421875 17.546875 -0.640625 
Q 12.796875 0.140625 7.71875 1.703125 
L 7.71875 11.625 
Q 12.109375 9.234375 16.796875 8.0625 
Q 21.484375 6.890625 26.703125 6.890625 
Q 35.15625 6.890625 40.078125 11.328125 
Q 45.015625 15.765625 45.015625 23.390625 
Q 45.015625 31 40.078125 35.4375 
Q 35.15625 39.890625 26.703125 39.890625 
Q 22.75 39.890625 18.8125 39.015625 
Q 14.890625 38.140625 10.796875 36.28125 
z
" id="DejaVuSans-53"/>
       </defs>
       <use xlink:href="#DejaVuSans-53"/>
       <use x="63.623047" xlink:href="#DejaVuSans-48"/>
       <use x="127.246094" xlink:href="#DejaVuSans-48"/>
      </g>
     </g>
    </g>
    <g id="xtick_3">
     <g id="line2d_3">
      <g>
       <use style="stroke:#000000;stroke-width:0.8;" x="190.614938" xlink:href="#m9efb2db303" y="307.584"/>
      </g>
     </g>
     <g id="text_3">
      <!-- 1000 -->
      <g transform="translate(177.889938 322.182437)scale(0.1 -0.1)">
       <defs>
        <path d="M 12.40625 8.296875 
L 28.515625 8.296875 
L 28.515625 63.921875 
L 10.984375 60.40625 
L 10.984375 69.390625 
L 28.421875 72.90625 
L 38.28125 72.90625 
L 38.28125 8.296875 
L 54.390625 8.296875 
L 54.390625 0 
L 12.40625 0 
z
" id="DejaVuSans-49"/>
       </defs>
       <use xlink:href="#DejaVuSans-49"/>
       <use x="63.623047" xlink:href="#DejaVuSans-48"/>
       <use x="127.246094" xlink:href="#DejaVuSans-48"/>
       <use x="190.869141" xlink:href="#DejaVuSans-48"/>
      </g>
     </g>
    </g>
    <g id="xtick_4">
     <g id="line2d_4">
      <g>
       <use style="stroke:#000000;stroke-width:0.8;" x="249.006043" xlink:href="#m9efb2db303" y="307.584"/>
      </g>
     </g>
     <g id="text_4">
      <!-- 1500 -->
      <g transform="translate(236.281043 322.182437)scale(0.1 -0.1)">
       <use xlink:href="#DejaVuSans-49"/>
       <use x="63.623047" xlink:href="#DejaVuSans-53"/>
       <use x="127.246094" xlink:href="#DejaVuSans-48"/>
       <use x="190.869141" xlink:href="#DejaVuSans-48"/>
      </g>
     </g>
    </g>
    <g id="xtick_5">
     <g id="line2d_5">
      <g>
       <use style="stroke:#000000;stroke-width:0.8;" x="307.397148" xlink:href="#m9efb2db303" y="307.584"/>
      </g>
     </g>
     <g id="text_5">
      <!-- 2000 -->
      <g transform="translate(294.672148 322.182437)scale(0.1 -0.1)">
       <defs>
        <path d="M 19.1875 8.296875 
L 53.609375 8.296875 
L 53.609375 0 
L 7.328125 0 
L 7.328125 8.296875 
Q 12.9375 14.109375 22.625 23.890625 
Q 32.328125 33.6875 34.8125 36.53125 
Q 39.546875 41.84375 41.421875 45.53125 
Q 43.3125 49.21875 43.3125 52.78125 
Q 43.3125 58.59375 39.234375 62.25 
Q 35.15625 65.921875 28.609375 65.921875 
Q 23.96875 65.921875 18.8125 64.3125 
Q 13.671875 62.703125 7.8125 59.421875 
L 7.8125 69.390625 
Q 13.765625 71.78125 18.9375 73 
Q 24.125 74.21875 28.421875 74.21875 
Q 39.75 74.21875 46.484375 68.546875 
Q 53.21875 62.890625 53.21875 53.421875 
Q 53.21875 48.921875 51.53125 44.890625 
Q 49.859375 40.875 45.40625 35.40625 
Q 44.1875 33.984375 37.640625 27.21875 
Q 31.109375 20.453125 19.1875 8.296875 
z
" id="DejaVuSans-50"/>
       </defs>
       <use xlink:href="#DejaVuSans-50"/>
       <use x="63.623047" xlink:href="#DejaVuSans-48"/>
       <use x="127.246094" xlink:href="#DejaVuSans-48"/>
       <use x="190.869141" xlink:href="#DejaVuSans-48"/>
      </g>
     </g>
    </g>
    <g id="xtick_6">
     <g id="line2d_6">
      <g>
       <use style="stroke:#000000;stroke-width:0.8;" x="365.788254" xlink:href="#m9efb2db303" y="307.584"/>
      </g>
     </g>
     <g id="text_6">
      <!-- 2500 -->
      <g transform="translate(353.063254 322.182437)scale(0.1 -0.1)">
       <use xlink:href="#DejaVuSans-50"/>
       <use x="63.623047" xlink:href="#DejaVuSans-53"/>
       <use x="127.246094" xlink:href="#DejaVuSans-48"/>
       <use x="190.869141" xlink:href="#DejaVuSans-48"/>
      </g>
     </g>
    </g>
    <g id="text_7">
     <!-- Time Series (Seconds) -->
     <g transform="translate(180.463125 335.860562)scale(0.1 -0.1)">
      <defs>
       <path d="M -0.296875 72.90625 
L 61.375 72.90625 
L 61.375 64.59375 
L 35.5 64.59375 
L 35.5 0 
L 25.59375 0 
L 25.59375 64.59375 
L -0.296875 64.59375 
z
" id="DejaVuSans-84"/>
       <path d="M 9.421875 54.6875 
L 18.40625 54.6875 
L 18.40625 0 
L 9.421875 0 
z
M 9.421875 75.984375 
L 18.40625 75.984375 
L 18.40625 64.59375 
L 9.421875 64.59375 
z
" id="DejaVuSans-105"/>
       <path d="M 52 44.1875 
Q 55.375 50.25 60.0625 53.125 
Q 64.75 56 71.09375 56 
Q 79.640625 56 84.28125 50.015625 
Q 88.921875 44.046875 88.921875 33.015625 
L 88.921875 0 
L 79.890625 0 
L 79.890625 32.71875 
Q 79.890625 40.578125 77.09375 44.375 
Q 74.3125 48.1875 68.609375 48.1875 
Q 61.625 48.1875 57.5625 43.546875 
Q 53.515625 38.921875 53.515625 30.90625 
L 53.515625 0 
L 44.484375 0 
L 44.484375 32.71875 
Q 44.484375 40.625 41.703125 44.40625 
Q 38.921875 48.1875 33.109375 48.1875 
Q 26.21875 48.1875 22.15625 43.53125 
Q 18.109375 38.875 18.109375 30.90625 
L 18.109375 0 
L 9.078125 0 
L 9.078125 54.6875 
L 18.109375 54.6875 
L 18.109375 46.1875 
Q 21.1875 51.21875 25.484375 53.609375 
Q 29.78125 56 35.6875 56 
Q 41.65625 56 45.828125 52.96875 
Q 50 49.953125 52 44.1875 
z
" id="DejaVuSans-109"/>
       <path d="M 56.203125 29.59375 
L 56.203125 25.203125 
L 14.890625 25.203125 
Q 15.484375 15.921875 20.484375 11.0625 
Q 25.484375 6.203125 34.421875 6.203125 
Q 39.59375 6.203125 44.453125 7.46875 
Q 49.3125 8.734375 54.109375 11.28125 
L 54.109375 2.78125 
Q 49.265625 0.734375 44.1875 -0.34375 
Q 39.109375 -1.421875 33.890625 -1.421875 
Q 20.796875 -1.421875 13.15625 6.1875 
Q 5.515625 13.8125 5.515625 26.8125 
Q 5.515625 40.234375 12.765625 48.109375 
Q 20.015625 56 32.328125 56 
Q 43.359375 56 49.78125 48.890625 
Q 56.203125 41.796875 56.203125 29.59375 
z
M 47.21875 32.234375 
Q 47.125 39.59375 43.09375 43.984375 
Q 39.0625 48.390625 32.421875 48.390625 
Q 24.90625 48.390625 20.390625 44.140625 
Q 15.875 39.890625 15.1875 32.171875 
z
" id="DejaVuSans-101"/>
       <path id="DejaVuSans-32"/>
       <path d="M 53.515625 70.515625 
L 53.515625 60.890625 
Q 47.90625 63.578125 42.921875 64.890625 
Q 37.9375 66.21875 33.296875 66.21875 
Q 25.25 66.21875 20.875 63.09375 
Q 16.5 59.96875 16.5 54.203125 
Q 16.5 49.359375 19.40625 46.890625 
Q 22.3125 44.4375 30.421875 42.921875 
L 36.375 41.703125 
Q 47.40625 39.59375 52.65625 34.296875 
Q 57.90625 29 57.90625 20.125 
Q 57.90625 9.515625 50.796875 4.046875 
Q 43.703125 -1.421875 29.984375 -1.421875 
Q 24.8125 -1.421875 18.96875 -0.25 
Q 13.140625 0.921875 6.890625 3.21875 
L 6.890625 13.375 
Q 12.890625 10.015625 18.65625 8.296875 
Q 24.421875 6.59375 29.984375 6.59375 
Q 38.421875 6.59375 43.015625 9.90625 
Q 47.609375 13.234375 47.609375 19.390625 
Q 47.609375 24.75 44.3125 27.78125 
Q 41.015625 30.8125 33.5 32.328125 
L 27.484375 33.5 
Q 16.453125 35.6875 11.515625 40.375 
Q 6.59375 45.0625 6.59375 53.421875 
Q 6.59375 63.09375 13.40625 68.65625 
Q 20.21875 74.21875 32.171875 74.21875 
Q 37.3125 74.21875 42.625 73.28125 
Q 47.953125 72.359375 53.515625 70.515625 
z
" id="DejaVuSans-83"/>
       <path d="M 41.109375 46.296875 
Q 39.59375 47.171875 37.8125 47.578125 
Q 36.03125 48 33.890625 48 
Q 26.265625 48 22.1875 43.046875 
Q 18.109375 38.09375 18.109375 28.8125 
L 18.109375 0 
L 9.078125 0 
L 9.078125 54.6875 
L 18.109375 54.6875 
L 18.109375 46.1875 
Q 20.953125 51.171875 25.484375 53.578125 
Q 30.03125 56 36.53125 56 
Q 37.453125 56 38.578125 55.875 
Q 39.703125 55.765625 41.0625 55.515625 
z
" id="DejaVuSans-114"/>
       <path d="M 44.28125 53.078125 
L 44.28125 44.578125 
Q 40.484375 46.53125 36.375 47.5 
Q 32.28125 48.484375 27.875 48.484375 
Q 21.1875 48.484375 17.84375 46.4375 
Q 14.5 44.390625 14.5 40.28125 
Q 14.5 37.15625 16.890625 35.375 
Q 19.28125 33.59375 26.515625 31.984375 
L 29.59375 31.296875 
Q 39.15625 29.25 43.1875 25.515625 
Q 47.21875 21.78125 47.21875 15.09375 
Q 47.21875 7.46875 41.1875 3.015625 
Q 35.15625 -1.421875 24.609375 -1.421875 
Q 20.21875 -1.421875 15.453125 -0.5625 
Q 10.6875 0.296875 5.421875 2 
L 5.421875 11.28125 
Q 10.40625 8.6875 15.234375 7.390625 
Q 20.0625 6.109375 24.8125 6.109375 
Q 31.15625 6.109375 34.5625 8.28125 
Q 37.984375 10.453125 37.984375 14.40625 
Q 37.984375 18.0625 35.515625 20.015625 
Q 33.0625 21.96875 24.703125 23.78125 
L 21.578125 24.515625 
Q 13.234375 26.265625 9.515625 29.90625 
Q 5.8125 33.546875 5.8125 39.890625 
Q 5.8125 47.609375 11.28125 51.796875 
Q 16.75 56 26.8125 56 
Q 31.78125 56 36.171875 55.265625 
Q 40.578125 54.546875 44.28125 53.078125 
z
" id="DejaVuSans-115"/>
       <path d="M 31 75.875 
Q 24.46875 64.65625 21.28125 53.65625 
Q 18.109375 42.671875 18.109375 31.390625 
Q 18.109375 20.125 21.3125 9.0625 
Q 24.515625 -2 31 -13.1875 
L 23.1875 -13.1875 
Q 15.875 -1.703125 12.234375 9.375 
Q 8.59375 20.453125 8.59375 31.390625 
Q 8.59375 42.28125 12.203125 53.3125 
Q 15.828125 64.359375 23.1875 75.875 
z
" id="DejaVuSans-40"/>
       <path d="M 48.78125 52.59375 
L 48.78125 44.1875 
Q 44.96875 46.296875 41.140625 47.34375 
Q 37.3125 48.390625 33.40625 48.390625 
Q 24.65625 48.390625 19.8125 42.84375 
Q 14.984375 37.3125 14.984375 27.296875 
Q 14.984375 17.28125 19.8125 11.734375 
Q 24.65625 6.203125 33.40625 6.203125 
Q 37.3125 6.203125 41.140625 7.25 
Q 44.96875 8.296875 48.78125 10.40625 
L 48.78125 2.09375 
Q 45.015625 0.34375 40.984375 -0.53125 
Q 36.96875 -1.421875 32.421875 -1.421875 
Q 20.0625 -1.421875 12.78125 6.34375 
Q 5.515625 14.109375 5.515625 27.296875 
Q 5.515625 40.671875 12.859375 48.328125 
Q 20.21875 56 33.015625 56 
Q 37.15625 56 41.109375 55.140625 
Q 45.0625 54.296875 48.78125 52.59375 
z
" id="DejaVuSans-99"/>
       <path d="M 30.609375 48.390625 
Q 23.390625 48.390625 19.1875 42.75 
Q 14.984375 37.109375 14.984375 27.296875 
Q 14.984375 17.484375 19.15625 11.84375 
Q 23.34375 6.203125 30.609375 6.203125 
Q 37.796875 6.203125 41.984375 11.859375 
Q 46.1875 17.53125 46.1875 27.296875 
Q 46.1875 37.015625 41.984375 42.703125 
Q 37.796875 48.390625 30.609375 48.390625 
z
M 30.609375 56 
Q 42.328125 56 49.015625 48.375 
Q 55.71875 40.765625 55.71875 27.296875 
Q 55.71875 13.875 49.015625 6.21875 
Q 42.328125 -1.421875 30.609375 -1.421875 
Q 18.84375 -1.421875 12.171875 6.21875 
Q 5.515625 13.875 5.515625 27.296875 
Q 5.515625 40.765625 12.171875 48.375 
Q 18.84375 56 30.609375 56 
z
" id="DejaVuSans-111"/>
       <path d="M 54.890625 33.015625 
L 54.890625 0 
L 45.90625 0 
L 45.90625 32.71875 
Q 45.90625 40.484375 42.875 44.328125 
Q 39.84375 48.1875 33.796875 48.1875 
Q 26.515625 48.1875 22.3125 43.546875 
Q 18.109375 38.921875 18.109375 30.90625 
L 18.109375 0 
L 9.078125 0 
L 9.078125 54.6875 
L 18.109375 54.6875 
L 18.109375 46.1875 
Q 21.34375 51.125 25.703125 53.5625 
Q 30.078125 56 35.796875 56 
Q 45.21875 56 50.046875 50.171875 
Q 54.890625 44.34375 54.890625 33.015625 
z
" id="DejaVuSans-110"/>
       <path d="M 45.40625 46.390625 
L 45.40625 75.984375 
L 54.390625 75.984375 
L 54.390625 0 
L 45.40625 0 
L 45.40625 8.203125 
Q 42.578125 3.328125 38.25 0.953125 
Q 33.9375 -1.421875 27.875 -1.421875 
Q 17.96875 -1.421875 11.734375 6.484375 
Q 5.515625 14.40625 5.515625 27.296875 
Q 5.515625 40.1875 11.734375 48.09375 
Q 17.96875 56 27.875 56 
Q 33.9375 56 38.25 53.625 
Q 42.578125 51.265625 45.40625 46.390625 
z
M 14.796875 27.296875 
Q 14.796875 17.390625 18.875 11.75 
Q 22.953125 6.109375 30.078125 6.109375 
Q 37.203125 6.109375 41.296875 11.75 
Q 45.40625 17.390625 45.40625 27.296875 
Q 45.40625 37.203125 41.296875 42.84375 
Q 37.203125 48.484375 30.078125 48.484375 
Q 22.953125 48.484375 18.875 42.84375 
Q 14.796875 37.203125 14.796875 27.296875 
z
" id="DejaVuSans-100"/>
       <path d="M 8.015625 75.875 
L 15.828125 75.875 
Q 23.140625 64.359375 26.78125 53.3125 
Q 30.421875 42.28125 30.421875 31.390625 
Q 30.421875 20.453125 26.78125 9.375 
Q 23.140625 -1.703125 15.828125 -13.1875 
L 8.015625 -13.1875 
Q 14.5 -2 17.703125 9.0625 
Q 20.90625 20.125 20.90625 31.390625 
Q 20.90625 42.671875 17.703125 53.65625 
Q 14.5 64.65625 8.015625 75.875 
z
" id="DejaVuSans-41"/>
      </defs>
      <use xlink:href="#DejaVuSans-84"/>
      <use x="57.958984" xlink:href="#DejaVuSans-105"/>
      <use x="85.742188" xlink:href="#DejaVuSans-109"/>
      <use x="183.154297" xlink:href="#DejaVuSans-101"/>
      <use x="244.677734" xlink:href="#DejaVuSans-32"/>
      <use x="276.464844" xlink:href="#DejaVuSans-83"/>
      <use x="339.941406" xlink:href="#DejaVuSans-101"/>
      <use x="401.464844" xlink:href="#DejaVuSans-114"/>
      <use x="442.578125" xlink:href="#DejaVuSans-105"/>
      <use x="470.361328" xlink:href="#DejaVuSans-101"/>
      <use x="531.884766" xlink:href="#DejaVuSans-115"/>
      <use x="583.984375" xlink:href="#DejaVuSans-32"/>
      <use x="615.771484" xlink:href="#DejaVuSans-40"/>
      <use x="654.785156" xlink:href="#DejaVuSans-83"/>
      <use x="718.261719" xlink:href="#DejaVuSans-101"/>
      <use x="779.785156" xlink:href="#DejaVuSans-99"/>
      <use x="834.765625" xlink:href="#DejaVuSans-111"/>
      <use x="895.947266" xlink:href="#DejaVuSans-110"/>
      <use x="959.326172" xlink:href="#DejaVuSans-100"/>
      <use x="1022.802734" xlink:href="#DejaVuSans-115"/>
      <use x="1074.902344" xlink:href="#DejaVuSans-41"/>
     </g>
    </g>
   </g>
   <g id="matplotlib.axis_2">
    <g id="ytick_1">
     <g id="line2d_7">
      <defs>
       <path d="M 0 0 
L -3.5 0 
" id="m791649ba39" style="stroke:#000000;stroke-width:0.8;"/>
      </defs>
      <g>
       <use style="stroke:#000000;stroke-width:0.8;" x="57.6" xlink:href="#m791649ba39" y="292.379364"/>
      </g>
     </g>
     <g id="text_8">
      <!-- −0.050 -->
      <g transform="translate(13.592188 296.178583)scale(0.1 -0.1)">
       <defs>
        <path d="M 10.59375 35.5 
L 73.1875 35.5 
L 73.1875 27.203125 
L 10.59375 27.203125 
z
" id="DejaVuSans-8722"/>
        <path d="M 10.6875 12.40625 
L 21 12.40625 
L 21 0 
L 10.6875 0 
z
" id="DejaVuSans-46"/>
       </defs>
       <use xlink:href="#DejaVuSans-8722"/>
       <use x="83.789062" xlink:href="#DejaVuSans-48"/>
       <use x="147.412109" xlink:href="#DejaVuSans-46"/>
       <use x="179.199219" xlink:href="#DejaVuSans-48"/>
       <use x="242.822266" xlink:href="#DejaVuSans-53"/>
       <use x="306.445312" xlink:href="#DejaVuSans-48"/>
      </g>
     </g>
    </g>
    <g id="ytick_2">
     <g id="line2d_8">
      <g>
       <use style="stroke:#000000;stroke-width:0.8;" x="57.6" xlink:href="#m791649ba39" y="259.951414"/>
      </g>
     </g>
     <g id="text_9">
      <!-- −0.025 -->
      <g transform="translate(13.592188 263.750633)scale(0.1 -0.1)">
       <use xlink:href="#DejaVuSans-8722"/>
       <use x="83.789062" xlink:href="#DejaVuSans-48"/>
       <use x="147.412109" xlink:href="#DejaVuSans-46"/>
       <use x="179.199219" xlink:href="#DejaVuSans-48"/>
       <use x="242.822266" xlink:href="#DejaVuSans-50"/>
       <use x="306.445312" xlink:href="#DejaVuSans-53"/>
      </g>
     </g>
    </g>
    <g id="ytick_3">
     <g id="line2d_9">
      <g>
       <use style="stroke:#000000;stroke-width:0.8;" x="57.6" xlink:href="#m791649ba39" y="227.523464"/>
      </g>
     </g>
     <g id="text_10">
      <!-- 0.000 -->
      <g transform="translate(21.971875 231.322683)scale(0.1 -0.1)">
       <use xlink:href="#DejaVuSans-48"/>
       <use x="63.623047" xlink:href="#DejaVuSans-46"/>
       <use x="95.410156" xlink:href="#DejaVuSans-48"/>
       <use x="159.033203" xlink:href="#DejaVuSans-48"/>
       <use x="222.65625" xlink:href="#DejaVuSans-48"/>
      </g>
     </g>
    </g>
    <g id="ytick_4">
     <g id="line2d_10">
      <g>
       <use style="stroke:#000000;stroke-width:0.8;" x="57.6" xlink:href="#m791649ba39" y="195.095514"/>
      </g>
     </g>
     <g id="text_11">
      <!-- 0.025 -->
      <g transform="translate(21.971875 198.894733)scale(0.1 -0.1)">
       <use xlink:href="#DejaVuSans-48"/>
       <use x="63.623047" xlink:href="#DejaVuSans-46"/>
       <use x="95.410156" xlink:href="#DejaVuSans-48"/>
       <use x="159.033203" xlink:href="#DejaVuSans-50"/>
       <use x="222.65625" xlink:href="#DejaVuSans-53"/>
      </g>
     </g>
    </g>
    <g id="ytick_5">
     <g id="line2d_11">
      <g>
       <use style="stroke:#000000;stroke-width:0.8;" x="57.6" xlink:href="#m791649ba39" y="162.667565"/>
      </g>
     </g>
     <g id="text_12">
      <!-- 0.050 -->
      <g transform="translate(21.971875 166.466783)scale(0.1 -0.1)">
       <use xlink:href="#DejaVuSans-48"/>
       <use x="63.623047" xlink:href="#DejaVuSans-46"/>
       <use x="95.410156" xlink:href="#DejaVuSans-48"/>
       <use x="159.033203" xlink:href="#DejaVuSans-53"/>
       <use x="222.65625" xlink:href="#DejaVuSans-48"/>
      </g>
     </g>
    </g>
    <g id="ytick_6">
     <g id="line2d_12">
      <g>
       <use style="stroke:#000000;stroke-width:0.8;" x="57.6" xlink:href="#m791649ba39" y="130.239615"/>
      </g>
     </g>
     <g id="text_13">
      <!-- 0.075 -->
      <g transform="translate(21.971875 134.038833)scale(0.1 -0.1)">
       <defs>
        <path d="M 8.203125 72.90625 
L 55.078125 72.90625 
L 55.078125 68.703125 
L 28.609375 0 
L 18.3125 0 
L 43.21875 64.59375 
L 8.203125 64.59375 
z
" id="DejaVuSans-55"/>
       </defs>
       <use xlink:href="#DejaVuSans-48"/>
       <use x="63.623047" xlink:href="#DejaVuSans-46"/>
       <use x="95.410156" xlink:href="#DejaVuSans-48"/>
       <use x="159.033203" xlink:href="#DejaVuSans-55"/>
       <use x="222.65625" xlink:href="#DejaVuSans-53"/>
      </g>
     </g>
    </g>
    <g id="ytick_7">
     <g id="line2d_13">
      <g>
       <use style="stroke:#000000;stroke-width:0.8;" x="57.6" xlink:href="#m791649ba39" y="97.811665"/>
      </g>
     </g>
     <g id="text_14">
      <!-- 0.100 -->
      <g transform="translate(21.971875 101.610884)scale(0.1 -0.1)">
       <use xlink:href="#DejaVuSans-48"/>
       <use x="63.623047" xlink:href="#DejaVuSans-46"/>
       <use x="95.410156" xlink:href="#DejaVuSans-49"/>
       <use x="159.033203" xlink:href="#DejaVuSans-48"/>
       <use x="222.65625" xlink:href="#DejaVuSans-48"/>
      </g>
     </g>
    </g>
    <g id="ytick_8">
     <g id="line2d_14">
      <g>
       <use style="stroke:#000000;stroke-width:0.8;" x="57.6" xlink:href="#m791649ba39" y="65.383715"/>
      </g>
     </g>
     <g id="text_15">
      <!-- 0.125 -->
      <g transform="translate(21.971875 69.182934)scale(0.1 -0.1)">
       <use xlink:href="#DejaVuSans-48"/>
       <use x="63.623047" xlink:href="#DejaVuSans-46"/>
       <use x="95.410156" xlink:href="#DejaVuSans-49"/>
       <use x="159.033203" xlink:href="#DejaVuSans-50"/>
       <use x="222.65625" xlink:href="#DejaVuSans-53"/>
      </g>
     </g>
    </g>
    <g id="text_16">
     <!-- Error Ratios (*100%) -->
     <g transform="translate(7.5125 226.026437)rotate(-90)scale(0.1 -0.1)">
      <defs>
       <path d="M 9.8125 72.90625 
L 55.90625 72.90625 
L 55.90625 64.59375 
L 19.671875 64.59375 
L 19.671875 43.015625 
L 54.390625 43.015625 
L 54.390625 34.71875 
L 19.671875 34.71875 
L 19.671875 8.296875 
L 56.78125 8.296875 
L 56.78125 0 
L 9.8125 0 
z
" id="DejaVuSans-69"/>
       <path d="M 44.390625 34.1875 
Q 47.5625 33.109375 50.5625 29.59375 
Q 53.5625 26.078125 56.59375 19.921875 
L 66.609375 0 
L 56 0 
L 46.6875 18.703125 
Q 43.0625 26.03125 39.671875 28.421875 
Q 36.28125 30.8125 30.421875 30.8125 
L 19.671875 30.8125 
L 19.671875 0 
L 9.8125 0 
L 9.8125 72.90625 
L 32.078125 72.90625 
Q 44.578125 72.90625 50.734375 67.671875 
Q 56.890625 62.453125 56.890625 51.90625 
Q 56.890625 45.015625 53.6875 40.46875 
Q 50.484375 35.9375 44.390625 34.1875 
z
M 19.671875 64.796875 
L 19.671875 38.921875 
L 32.078125 38.921875 
Q 39.203125 38.921875 42.84375 42.21875 
Q 46.484375 45.515625 46.484375 51.90625 
Q 46.484375 58.296875 42.84375 61.546875 
Q 39.203125 64.796875 32.078125 64.796875 
z
" id="DejaVuSans-82"/>
       <path d="M 34.28125 27.484375 
Q 23.390625 27.484375 19.1875 25 
Q 14.984375 22.515625 14.984375 16.5 
Q 14.984375 11.71875 18.140625 8.90625 
Q 21.296875 6.109375 26.703125 6.109375 
Q 34.1875 6.109375 38.703125 11.40625 
Q 43.21875 16.703125 43.21875 25.484375 
L 43.21875 27.484375 
z
M 52.203125 31.203125 
L 52.203125 0 
L 43.21875 0 
L 43.21875 8.296875 
Q 40.140625 3.328125 35.546875 0.953125 
Q 30.953125 -1.421875 24.3125 -1.421875 
Q 15.921875 -1.421875 10.953125 3.296875 
Q 6 8.015625 6 15.921875 
Q 6 25.140625 12.171875 29.828125 
Q 18.359375 34.515625 30.609375 34.515625 
L 43.21875 34.515625 
L 43.21875 35.40625 
Q 43.21875 41.609375 39.140625 45 
Q 35.0625 48.390625 27.6875 48.390625 
Q 23 48.390625 18.546875 47.265625 
Q 14.109375 46.140625 10.015625 43.890625 
L 10.015625 52.203125 
Q 14.9375 54.109375 19.578125 55.046875 
Q 24.21875 56 28.609375 56 
Q 40.484375 56 46.34375 49.84375 
Q 52.203125 43.703125 52.203125 31.203125 
z
" id="DejaVuSans-97"/>
       <path d="M 18.3125 70.21875 
L 18.3125 54.6875 
L 36.8125 54.6875 
L 36.8125 47.703125 
L 18.3125 47.703125 
L 18.3125 18.015625 
Q 18.3125 11.328125 20.140625 9.421875 
Q 21.96875 7.515625 27.59375 7.515625 
L 36.8125 7.515625 
L 36.8125 0 
L 27.59375 0 
Q 17.1875 0 13.234375 3.875 
Q 9.28125 7.765625 9.28125 18.015625 
L 9.28125 47.703125 
L 2.6875 47.703125 
L 2.6875 54.6875 
L 9.28125 54.6875 
L 9.28125 70.21875 
z
" id="DejaVuSans-116"/>
       <path d="M 47.015625 60.890625 
L 29.5 51.421875 
L 47.015625 41.890625 
L 44.1875 37.109375 
L 27.78125 47.015625 
L 27.78125 28.609375 
L 22.21875 28.609375 
L 22.21875 47.015625 
L 5.8125 37.109375 
L 2.984375 41.890625 
L 20.515625 51.421875 
L 2.984375 60.890625 
L 5.8125 65.71875 
L 22.21875 55.8125 
L 22.21875 74.21875 
L 27.78125 74.21875 
L 27.78125 55.8125 
L 44.1875 65.71875 
z
" id="DejaVuSans-42"/>
       <path d="M 72.703125 32.078125 
Q 68.453125 32.078125 66.03125 28.46875 
Q 63.625 24.859375 63.625 18.40625 
Q 63.625 12.0625 66.03125 8.421875 
Q 68.453125 4.78125 72.703125 4.78125 
Q 76.859375 4.78125 79.265625 8.421875 
Q 81.6875 12.0625 81.6875 18.40625 
Q 81.6875 24.8125 79.265625 28.4375 
Q 76.859375 32.078125 72.703125 32.078125 
z
M 72.703125 38.28125 
Q 80.421875 38.28125 84.953125 32.90625 
Q 89.5 27.546875 89.5 18.40625 
Q 89.5 9.28125 84.9375 3.921875 
Q 80.375 -1.421875 72.703125 -1.421875 
Q 64.890625 -1.421875 60.34375 3.921875 
Q 55.8125 9.28125 55.8125 18.40625 
Q 55.8125 27.59375 60.375 32.9375 
Q 64.9375 38.28125 72.703125 38.28125 
z
M 22.3125 68.015625 
Q 18.109375 68.015625 15.6875 64.375 
Q 13.28125 60.75 13.28125 54.390625 
Q 13.28125 47.953125 15.671875 44.328125 
Q 18.0625 40.71875 22.3125 40.71875 
Q 26.5625 40.71875 28.96875 44.328125 
Q 31.390625 47.953125 31.390625 54.390625 
Q 31.390625 60.6875 28.953125 64.34375 
Q 26.515625 68.015625 22.3125 68.015625 
z
M 66.40625 74.21875 
L 74.21875 74.21875 
L 28.609375 -1.421875 
L 20.796875 -1.421875 
z
M 22.3125 74.21875 
Q 30.03125 74.21875 34.609375 68.875 
Q 39.203125 63.53125 39.203125 54.390625 
Q 39.203125 45.171875 34.640625 39.84375 
Q 30.078125 34.515625 22.3125 34.515625 
Q 14.546875 34.515625 10.03125 39.859375 
Q 5.515625 45.21875 5.515625 54.390625 
Q 5.515625 63.484375 10.046875 68.84375 
Q 14.59375 74.21875 22.3125 74.21875 
z
" id="DejaVuSans-37"/>
      </defs>
      <use xlink:href="#DejaVuSans-69"/>
      <use x="63.183594" xlink:href="#DejaVuSans-114"/>
      <use x="102.546875" xlink:href="#DejaVuSans-114"/>
      <use x="141.410156" xlink:href="#DejaVuSans-111"/>
      <use x="202.591797" xlink:href="#DejaVuSans-114"/>
      <use x="243.705078" xlink:href="#DejaVuSans-32"/>
      <use x="275.492188" xlink:href="#DejaVuSans-82"/>
      <use x="342.724609" xlink:href="#DejaVuSans-97"/>
      <use x="404.003906" xlink:href="#DejaVuSans-116"/>
      <use x="443.212891" xlink:href="#DejaVuSans-105"/>
      <use x="470.996094" xlink:href="#DejaVuSans-111"/>
      <use x="532.177734" xlink:href="#DejaVuSans-115"/>
      <use x="584.277344" xlink:href="#DejaVuSans-32"/>
      <use x="616.064453" xlink:href="#DejaVuSans-40"/>
      <use x="655.078125" xlink:href="#DejaVuSans-42"/>
      <use x="705.078125" xlink:href="#DejaVuSans-49"/>
      <use x="768.701172" xlink:href="#DejaVuSans-48"/>
      <use x="832.324219" xlink:href="#DejaVuSans-48"/>
      <use x="895.947266" xlink:href="#DejaVuSans-37"/>
      <use x="990.966797" xlink:href="#DejaVuSans-41"/>
     </g>
    </g>
   </g>
   <g id="line2d_15">
    <path clip-path="url(#pe7abc3938d)" d="M 73.832727 162.667565 
L 398.487273 162.667565 
L 398.487273 162.667565 
" style="fill:none;stroke:#000000;stroke-dasharray:5.55,2.4;stroke-dashoffset:0;stroke-width:1.5;"/>
   </g>
   <g id="line2d_16">
    <path clip-path="url(#pe7abc3938d)" d="M 73.832727 292.379364 
L 398.487273 292.379364 
L 398.487273 292.379364 
" style="fill:none;stroke:#000000;stroke-dasharray:5.55,2.4;stroke-dashoffset:0;stroke-width:1.5;"/>
   </g>
   <g id="line2d_17">
    <path clip-path="url(#pe7abc3938d)" d="M 73.832727 224.090272 
L 74.066292 224.177287 
L 74.299856 224.958318 
L 75.000549 225.324535 
L 75.234114 226.671835 
L 76.051589 227.193254 
L 76.518718 227.260123 
L 76.6355 227.125392 
L 76.869065 227.11954 
L 77.102629 226.847567 
L 77.219411 231.772302 
L 77.68654 231.805753 
L 78.854362 232.007913 
L 78.971145 232.340567 
L 79.087927 232.324821 
L 79.321491 232.429108 
L 79.905402 232.311081 
L 80.022184 231.419119 
L 80.83966 231.48285 
L 80.956442 232.413726 
L 81.540353 232.086677 
L 81.773918 231.704551 
L 81.8907 231.913281 
L 82.357829 231.513359 
L 82.474611 231.726041 
L 83.875997 230.583315 
L 84.459908 230.355307 
L 85.394166 229.835517 
L 86.67877 228.775718 
L 86.912335 227.793186 
L 87.613028 227.445189 
L 87.72981 226.407606 
L 88.196939 226.385267 
L 88.430504 226.089826 
L 88.897632 226.083658 
L 89.014415 225.134594 
L 89.131197 225.593192 
L 89.247979 226.874125 
L 89.364761 226.505426 
L 89.481543 226.740285 
L 89.715108 228.133531 
L 90.065455 227.088043 
L 90.299019 228.24933 
L 90.532583 228.291088 
L 90.766148 228.576332 
L 91.466841 228.263929 
L 91.583623 228.199296 
L 91.700405 228.551839 
L 92.517881 227.930714 
L 92.634663 227.218399 
L 93.452139 227.231749 
L 93.568921 228.558397 
L 93.919267 228.460336 
L 94.03605 228.362531 
L 94.269614 233.088012 
L 94.386396 232.968444 
L 94.619961 233.010032 
L 94.970307 232.867819 
L 95.320654 232.723633 
L 96.955605 232.412277 
L 97.072387 227.451815 
L 98.240209 227.437078 
L 98.473774 232.546088 
L 98.590556 232.779035 
L 98.82412 232.657071 
L 99.174467 232.687784 
L 99.291249 232.769125 
L 99.408031 236.522056 
L 99.524814 235.512346 
L 99.641596 75.797404 
L 99.87516 75.838237 
L 100.108725 75.732072 
L 101.626893 75.925907 
L 101.743676 282.576025 
L 101.860458 273.278024 
L 102.094022 239.336315 
L 102.444369 235.88943 
L 103.02828 233.817611 
L 104.196102 231.153552 
L 104.429666 229.532728 
L 105.597489 227.356266 
L 106.1814 226.646175 
L 106.298182 227.906157 
L 106.414964 227.39683 
L 106.531746 228.928497 
L 106.648528 227.983461 
L 106.998875 228.936533 
L 108.400262 230.337148 
L 108.633826 232.394708 
L 108.750608 226.288796 
L 109.100955 226.220728 
L 109.217737 225.52596 
L 109.684866 225.357309 
L 110.268777 225.026497 
L 111.553381 223.981093 
L 111.670164 224.504659 
L 112.137292 224.095405 
L 113.188332 223.640552 
L 113.538679 223.587375 
L 113.655461 221.4919 
L 113.889026 221.4161 
L 114.12259 221.145979 
L 114.589719 221.007381 
L 114.940065 220.98827 
L 115.056848 221.840772 
L 115.640759 221.999515 
L 115.874323 222.136252 
L 116.107888 222.826419 
L 117.042145 223.864714 
L 117.392492 224.209671 
L 117.509274 223.360143 
L 117.976403 223.714997 
L 119.261007 224.011359 
L 119.377789 223.908817 
L 119.494572 224.602592 
L 119.728136 224.534147 
L 119.844918 224.776088 
L 119.9617 224.726913 
L 120.195265 228.659081 
L 120.428829 227.871647 
L 120.895958 227.75178 
L 121.596651 227.825906 
L 121.713434 227.84027 
L 121.830216 229.367998 
L 122.764474 229.057341 
L 123.231602 228.960157 
L 123.348385 229.561743 
L 124.866553 229.472649 
L 125.2169 229.404128 
L 125.333682 228.692914 
L 125.567247 228.668576 
L 125.800811 228.203457 
L 126.384722 227.892037 
L 126.618286 225.456615 
L 126.735069 225.471017 
L 126.968633 225.245976 
L 127.085415 239.546722 
L 127.31898 240.106253 
L 127.435762 225.032362 
L 127.552544 224.975502 
L 127.669326 223.447296 
L 128.136455 223.497657 
L 128.603584 223.762312 
L 129.42106 224.273527 
L 129.537842 223.03259 
L 130.588882 222.925462 
L 130.939228 222.982991 
L 131.05601 222.870727 
L 131.172793 223.718195 
L 132.807744 224.090707 
L 133.742001 224.611127 
L 134.092348 224.772205 
L 135.26017 225.195225 
L 136.31121 225.012423 
L 136.778339 224.931915 
L 137.011903 225.104661 
L 137.245468 225.075318 
L 137.595814 225.249008 
L 138.062943 225.193437 
L 138.296508 225.203047 
L 138.41329 225.61744 
L 139.230765 225.282778 
L 139.347547 224.335122 
L 141.332845 223.745968 
L 141.566409 223.546697 
L 141.683192 216.805143 
L 141.799974 216.56966 
L 142.267103 219.167138 
L 142.851014 220.376063 
L 143.668489 221.743788 
L 143.902054 221.814764 
L 144.135618 232.955636 
L 144.2524 233.300651 
L 144.485965 232.53136 
L 145.186658 232.642549 
L 145.420222 232.629269 
L 145.770569 231.580819 
L 145.887351 231.310028 
L 146.004133 230.194278 
L 146.120916 224.207693 
L 146.35448 224.216525 
L 146.588044 224.06612 
L 147.055173 224.251664 
L 147.40552 224.326941 
L 147.639084 224.675116 
L 148.339778 224.611323 
L 148.45656 225.245049 
L 149.040471 225.07098 
L 149.157253 190.669773 
L 149.274035 196.074937 
L 149.5076 219.463485 
L 149.857946 220.13391 
L 150.208293 220.692948 
L 150.325075 222.225796 
L 150.55864 222.036881 
L 150.675422 222.195171 
L 151.025768 222.078745 
L 151.259333 222.113876 
L 151.726462 222.490167 
L 151.960026 226.014554 
L 152.076808 226.304297 
L 152.193591 225.793761 
L 152.660719 225.911868 
L 152.894284 228.824598 
L 153.011066 224.530743 
L 153.24463 226.78054 
L 153.478195 226.923368 
L 153.828542 226.808218 
L 154.062106 226.556738 
L 154.178888 224.91908 
L 154.412453 224.927106 
L 154.879581 225.360114 
L 155.34671 225.536077 
L 155.580275 225.606187 
L 155.697057 226.060783 
L 155.813839 225.301818 
L 155.930621 227.832656 
L 156.164186 226.389537 
L 156.864879 225.799626 
L 157.098443 225.760859 
L 157.682354 225.726538 
L 157.915919 225.696515 
L 158.149483 225.404463 
L 158.383048 225.37873 
L 158.850177 225.308656 
L 158.966959 226.26432 
L 159.083741 230.760561 
L 159.200523 222.128947 
L 159.434088 226.524434 
L 159.55087 225.484623 
L 160.017999 226.088775 
L 160.251563 226.187665 
L 160.485128 226.379889 
L 161.302603 227.47115 
L 162.236861 228.060012 
L 163.171118 228.467573 
L 163.287901 236.771524 
L 163.521465 236.990864 
L 163.755029 237.314589 
L 164.455723 237.727241 
L 164.689287 237.489812 
L 165.039634 237.458673 
L 165.156416 243.060878 
L 165.740327 242.974636 
L 165.973891 242.994683 
L 166.090674 227.895295 
L 166.207456 227.891673 
L 166.44102 227.473249 
L 168.309536 227.415108 
L 168.426318 226.83905 
L 168.5431 226.881891 
L 168.776664 227.286152 
L 169.010229 227.407328 
L 169.127011 165.352191 
L 169.243793 170.255797 
L 169.477358 166.633715 
L 169.710922 166.730129 
L 169.944487 166.965212 
L 170.64518 167.422886 
L 170.995526 167.969608 
L 171.579438 168.865816 
L 171.813002 169.163647 
L 171.929784 167.909111 
L 172.046566 168.009414 
L 172.280131 168.505577 
L 172.630477 168.781509 
L 172.980824 169.205784 
L 173.214388 169.564785 
L 173.331171 173.10475 
L 173.447953 171.794039 
L 173.564735 227.390166 
L 174.148646 227.613086 
L 174.265428 227.214235 
L 174.849339 227.622887 
L 175.550033 227.945028 
L 175.666815 227.975778 
L 175.900379 228.688036 
L 176.133944 228.815998 
L 176.250726 228.551253 
L 176.834637 228.63381 
L 176.951419 228.317323 
L 177.301766 228.31753 
L 177.652112 228.220671 
L 177.768895 228.7179 
L 179.63741 227.798889 
L 179.754192 243.262771 
L 179.870974 227.679677 
L 179.987757 227.627617 
L 180.104539 227.0914 
L 180.221321 122.02296 
L 180.338103 226.661553 
L 181.038797 226.374693 
L 181.155579 226.748673 
L 181.73949 226.549289 
L 181.973054 226.534373 
L 182.089836 225.880003 
L 182.440183 225.978741 
L 182.673748 127.29595 
L 182.79053 132.445707 
L 183.024094 122.925307 
L 183.140876 124.74314 
L 183.257659 122.700489 
L 183.374441 123.12578 
L 183.491223 123.099863 
L 183.84157 124.672719 
L 184.425481 126.027542 
L 184.659045 129.985851 
L 184.775827 130.797092 
L 184.89261 133.093452 
L 185.009392 133.093 
L 185.242956 133.629509 
L 185.359738 133.649454 
L 185.593303 135.541947 
L 185.826867 135.94542 
L 185.943649 135.112885 
L 186.060432 135.36339 
L 186.177214 134.708507 
L 186.293996 225.449581 
L 186.877907 226.020936 
L 187.111472 226.474205 
L 187.812165 226.963149 
L 187.928947 228.810723 
L 188.512858 229.084138 
L 188.62964 228.779422 
L 189.213551 229.081544 
L 189.330334 229.106968 
L 189.447116 229.404002 
L 190.147809 229.387416 
L 190.73172 229.652176 
L 191.665978 230.200406 
L 191.78276 232.60422 
L 191.899542 232.660182 
L 192.133107 233.08042 
L 192.717018 233.308517 
L 192.8338 233.9269 
L 193.184147 233.835277 
L 193.534493 233.654368 
L 193.651275 236.094707 
L 193.768058 234.00217 
L 193.88484 236.210558 
L 194.118404 232.238073 
L 194.235186 231.695602 
L 194.468751 232.363056 
L 195.169444 231.962494 
L 195.403009 231.33228 
L 196.103702 230.832461 
L 196.921177 230.559621 
L 197.505088 230.365446 
L 197.621871 230.657568 
L 197.855435 230.511038 
L 197.972217 145.08697 
L 198.088999 147.963762 
L 198.205782 144.294016 
L 198.322564 144.863331 
L 198.556128 143.364616 
L 198.67291 141.74834 
L 198.906475 141.641638 
L 199.023257 141.701448 
L 199.607168 141.036549 
L 200.191079 141.522176 
L 200.307861 141.366768 
L 201.475683 142.818774 
L 201.592466 227.664951 
L 202.059595 227.755609 
L 203.344199 227.515806 
L 203.577763 226.556547 
L 203.811328 226.305275 
L 204.278457 226.199135 
L 204.395239 226.141479 
L 204.628803 225.775995 
L 204.97915 225.74728 
L 205.329496 225.825161 
L 205.446279 226.12404 
L 206.03019 226.072673 
L 206.146972 226.408232 
L 207.08123 226.428111 
L 207.431576 226.494005 
L 208.599398 226.556786 
L 209.183309 226.69876 
L 209.300092 225.791747 
L 209.416874 225.850286 
L 209.650438 226.28538 
L 210.234349 226.634973 
L 210.351131 227.208218 
L 210.467914 53.568 
L 210.584696 156.463253 
L 210.81826 161.870032 
L 210.935043 161.823779 
L 211.168607 161.295816 
L 211.402171 161.77423 
L 211.8693 162.034572 
L 212.102865 162.465651 
L 212.219647 160.809798 
L 212.336429 161.190063 
L 212.686776 165.817648 
L 212.803558 231.353585 
L 213.387469 231.610608 
L 215.02242 231.835702 
L 215.139202 233.407262 
L 215.606331 233.297967 
L 216.07346 233.208541 
L 216.190242 233.647267 
L 217.1245 233.114709 
L 217.941975 232.436686 
L 218.058757 215.9526 
L 218.292322 169.076335 
L 218.409104 169.780302 
L 218.525886 167.301477 
L 218.642668 169.902811 
L 218.759451 230.99586 
L 219.343362 230.558976 
L 220.86153 229.804654 
L 220.978313 228.370984 
L 221.095095 228.313169 
L 221.328659 227.841924 
L 221.91257 227.551233 
L 222.146135 226.948814 
L 222.730046 226.820193 
L 222.846828 226.803394 
L 222.96361 225.339212 
L 223.430739 225.512196 
L 223.547521 225.602241 
L 223.664303 225.069197 
L 224.364997 225.620534 
L 224.598561 226.260714 
L 225.182472 226.585281 
L 225.299254 209.424949 
L 225.532819 168.90934 
L 225.649601 176.14766 
L 225.883165 170.525349 
L 226.350294 171.061442 
L 226.700641 171.560402 
L 226.934205 172.711887 
L 227.050988 173.265098 
L 227.401334 173.193932 
L 227.751681 172.876252 
L 227.985245 171.928569 
L 228.21881 171.677504 
L 228.452374 171.335042 
L 228.569156 226.963046 
L 228.685939 226.928076 
L 228.802721 228.247085 
L 229.620196 227.849482 
L 230.204107 227.360341 
L 230.437672 226.393435 
L 230.788018 226.153793 
L 231.255147 226.119147 
L 232.539751 226.248026 
L 232.656534 225.223329 
L 232.773316 225.2326 
L 232.890098 224.909759 
L 233.474009 224.975947 
L 233.590791 224.983733 
L 233.824356 225.371434 
L 234.525049 225.10863 
L 234.758613 224.711997 
L 235.225742 224.485214 
L 235.459307 223.621523 
L 235.576089 223.554798 
L 235.692871 172.335446 
L 235.926436 177.396239 
L 236.043218 177.37981 
L 236.276782 177.7688 
L 236.977475 178.379388 
L 237.561387 178.630825 
L 238.145298 179.109874 
L 238.378862 179.129035 
L 238.495644 178.680622 
L 238.612426 178.75224 
L 238.729209 179.131574 
L 238.845991 179.105938 
L 238.962773 173.526729 
L 239.079555 174.312253 
L 239.196337 224.74127 
L 239.429902 224.933234 
L 239.663466 225.831656 
L 240.36416 226.420315 
L 240.480942 225.497734 
L 241.064853 226.187333 
L 241.298417 227.194505 
L 241.882328 227.804446 
L 242.115893 228.301417 
L 243.517279 228.981321 
L 243.634061 229.005765 
L 243.867626 187.149023 
L 243.984408 196.813257 
L 244.217973 192.648094 
L 244.334755 195.919479 
L 244.451537 195.741663 
L 244.568319 195.818414 
L 244.918666 195.68045 
L 245.269012 195.722406 
L 245.502577 196.167228 
L 245.969706 196.144928 
L 246.20327 196.114235 
L 246.320052 195.33381 
L 246.553617 195.391155 
L 246.903963 195.594797 
L 247.020746 195.021586 
L 247.721439 195.72395 
L 247.838221 195.480326 
L 248.772479 196.334877 
L 249.473172 197.648144 
L 250.057083 198.773807 
L 250.173865 196.978996 
L 250.290647 197.215662 
L 250.40743 197.048256 
L 251.108123 198.409553 
L 251.224905 197.560337 
L 251.808816 198.706713 
L 252.042381 199.206302 
L 252.275945 202.077105 
L 252.743074 202.695881 
L 252.976638 203.75592 
L 253.560549 204.271104 
L 253.794114 204.720082 
L 254.14446 204.869197 
L 254.845154 204.847699 
L 255.1955 204.77294 
L 255.545847 204.825269 
L 255.662629 205.326323 
L 255.896194 205.187756 
L 256.012976 206.339857 
L 256.129758 206.274059 
L 256.24654 206.807252 
L 256.947233 206.406187 
L 257.064016 205.686086 
L 257.531145 205.674839 
L 257.764709 205.746303 
L 257.881491 207.423184 
L 257.998273 205.967192 
L 258.115056 207.007121 
L 258.231838 206.484368 
L 258.34862 231.217826 
L 258.582184 231.141765 
L 258.815749 230.914922 
L 259.39966 230.926679 
L 259.516442 230.454341 
L 261.50174 231.749018 
L 261.735304 231.780029 
L 261.852086 230.357971 
L 262.435997 230.135344 
L 262.786344 229.93496 
L 262.903126 230.905163 
L 263.720602 230.556109 
L 263.954166 230.570721 
L 264.421295 230.219591 
L 264.654859 229.730486 
L 265.23877 229.458938 
L 265.355553 229.718579 
L 265.705899 229.621622 
L 265.939464 208.261512 
L 266.173028 214.339561 
L 266.523375 213.980463 
L 266.640157 214.245282 
L 266.756939 214.122799 
L 266.990504 213.838313 
L 267.107286 214.073056 
L 267.224068 214.975357 
L 267.34085 214.54452 
L 267.457632 228.528994 
L 267.574415 228.483231 
L 267.691197 227.511804 
L 267.807979 227.487051 
L 268.041543 227.622459 
L 268.508672 227.639136 
L 268.625455 227.648748 
L 268.742237 227.03429 
L 269.559712 227.049966 
L 269.793277 227.171624 
L 270.260405 227.301494 
L 270.377188 226.678966 
L 271.077881 227.154567 
L 271.194663 226.984061 
L 272.128921 227.951545 
L 273.413525 228.874778 
L 273.530307 229.929775 
L 274.464565 230.218491 
L 274.581347 230.59747 
L 275.398823 230.546072 
L 275.515605 231.586961 
L 276.099516 231.368448 
L 276.216298 232.011011 
L 276.800209 231.466132 
L 276.916991 231.354017 
L 277.150556 231.039177 
L 277.617685 230.958488 
L 277.851249 221.197552 
L 277.968031 221.138009 
L 278.201596 221.308573 
L 278.43516 221.32611 
L 278.785507 221.05842 
L 279.252636 220.844608 
L 279.369418 220.405551 
L 279.4862 220.449868 
L 279.719765 221.177667 
L 280.303676 221.726787 
L 280.53724 221.881791 
L 280.770804 222.218392 
L 281.004369 225.815506 
L 281.237933 227.596256 
L 281.354716 225.405396 
L 281.58828 226.411816 
L 281.938627 227.138076 
L 282.055409 226.94125 
L 282.63932 227.457763 
L 282.756102 227.470189 
L 282.872884 227.910657 
L 283.223231 227.698328 
L 283.573578 227.446399 
L 283.923924 227.39492 
L 284.040706 226.172138 
L 284.157489 229.616741 
L 285.091746 229.757956 
L 285.208528 230.521846 
L 285.325311 230.501094 
L 285.442093 229.644611 
L 286.142786 229.44816 
L 286.376351 229.644831 
L 287.077044 229.388383 
L 287.193826 229.967689 
L 287.777737 229.900185 
L 287.894519 230.74579 
L 288.595213 230.39464 
L 288.828777 230.08545 
L 289.52947 229.721787 
L 289.763035 224.354077 
L 289.879817 223.639414 
L 289.996599 223.837353 
L 290.230164 225.66121 
L 290.697292 226.185275 
L 291.164421 226.5374 
L 291.514768 227.115995 
L 291.981897 227.600576 
L 292.098679 226.772371 
L 292.68259 227.158835 
L 292.916154 227.319167 
L 293.032937 226.604696 
L 293.616848 227.280522 
L 293.73363 226.784415 
L 294.317541 227.440102 
L 294.551105 227.54187 
L 295.135016 227.64123 
L 295.83571 227.624706 
L 296.186056 227.799203 
L 296.769967 228.327418 
L 296.88675 228.008648 
L 297.470661 228.37814 
L 297.821007 228.606861 
L 298.054572 229.309915 
L 298.755265 229.760054 
L 298.872047 231.261135 
L 300.039869 231.49281 
L 300.156651 228.575867 
L 300.506998 228.575936 
L 301.324474 228.668622 
L 302.025167 228.632345 
L 302.609078 228.70735 
L 302.72586 236.290573 
L 302.842642 234.590481 
L 302.959424 234.954446 
L 303.076207 234.905156 
L 304.244029 235.661088 
L 305.295069 235.844122 
L 305.411851 236.214763 
L 306.112544 236.145282 
L 306.346109 236.341779 
L 307.280366 236.266251 
L 308.448188 236.009106 
L 308.564971 235.45919 
L 308.681753 235.456261 
L 308.915317 235.221244 
L 309.499228 235.346405 
L 309.61601 234.732807 
L 310.433486 234.780681 
L 310.550268 235.074785 
L 311.134179 234.933006 
L 311.367744 234.611928 
L 311.834872 234.319078 
L 311.951655 234.243388 
L 312.068437 245.360576 
L 312.302001 245.335237 
L 312.418784 248.979479 
L 312.535566 229.652828 
L 312.885912 229.695825 
L 313.936952 229.849356 
L 314.287299 229.770516 
L 314.404081 229.911605 
L 314.87121 229.730707 
L 315.221557 229.682789 
L 315.338339 229.611414 
L 315.455121 230.170797 
L 316.272596 230.279703 
L 316.389379 229.389114 
L 316.856508 229.689689 
L 316.97329 229.793475 
L 317.090072 229.195152 
L 317.557201 229.697561 
L 317.790765 246.193467 
L 317.907547 252.066373 
L 318.02433 248.400946 
L 318.141112 254.302692 
L 318.491458 230.497906 
L 318.841805 230.346425 
L 319.308934 230.108129 
L 320.126409 229.989279 
L 320.243192 229.086592 
L 320.359974 229.124552 
L 320.593538 228.98728 
L 321.177449 229.032122 
L 321.294232 229.90621 
L 322.111707 229.645691 
L 322.228489 230.379284 
L 322.695618 230.396389 
L 322.8124 229.240191 
L 323.045965 229.212835 
L 323.279529 229.177188 
L 323.629876 229.274118 
L 323.746658 230.214616 
L 324.213787 230.087992 
L 325.498391 229.442441 
L 325.615173 159.061606 
L 325.731956 159.664925 
L 325.848738 159.497485 
L 325.96552 294.584577 
L 326.082302 294.958231 
L 326.199084 292.184623 
L 326.315867 295.416053 
L 326.432649 295.488 
L 326.899778 294.042666 
L 327.01656 293.701256 
L 327.250124 291.861426 
L 327.717253 289.940746 
L 327.950818 288.924125 
L 328.184382 287.361991 
L 328.651511 285.981604 
L 328.768293 284.659891 
L 328.885075 278.984547 
L 329.001857 279.019773 
L 329.11864 275.115217 
L 329.235422 278.650918 
L 329.352204 278.470461 
L 329.468986 278.654132 
L 329.585768 277.980393 
L 329.936115 278.609576 
L 330.636808 280.537123 
L 330.870373 286.116449 
L 331.103937 287.627902 
L 331.220719 286.407848 
L 331.337502 293.167729 
L 331.454284 289.07956 
L 331.571066 291.13178 
L 332.038195 287.819881 
L 332.388542 286.440754 
L 332.972453 284.782324 
L 333.206017 284.542455 
L 333.439581 284.014414 
L 333.673146 275.471047 
L 333.90671 274.795811 
L 334.140275 274.497195 
L 334.724186 274.439565 
L 334.95775 274.486257 
L 335.191315 278.965127 
L 335.308097 279.34556 
L 335.424879 279.074849 
L 335.541661 279.17088 
L 335.658443 279.427817 
L 336.242354 279.174269 
L 336.359137 279.058453 
L 336.475919 280.041566 
L 336.826266 279.593231 
L 337.05983 272.625329 
L 337.643741 273.311806 
L 337.877305 273.308223 
L 338.344434 273.552929 
L 338.577999 273.564016 
L 338.811563 273.613096 
L 339.045128 273.847767 
L 339.512256 273.931119 
L 339.862603 274.027004 
L 340.096167 269.551002 
L 340.446514 269.370102 
L 341.030425 269.475349 
L 341.147207 269.561651 
L 341.380772 270.55375 
L 341.497554 270.5279 
L 341.964683 271.621865 
L 342.198247 276.801856 
L 342.315029 276.615295 
L 342.782158 277.172845 
L 342.89894 291.843574 
L 343.015723 282.987378 
L 343.132505 283.840415 
L 343.249287 286.60452 
L 343.482852 285.43839 
L 343.94998 284.474801 
L 344.066763 276.3488 
L 344.300327 275.696722 
L 344.650674 264.826446 
L 344.767456 282.603877 
L 344.884238 270.055238 
L 345.00102 272.368143 
L 345.117802 269.891424 
L 345.351367 274.41607 
L 345.584931 274.719329 
L 346.168842 273.613687 
L 346.519189 272.755415 
L 346.752753 271.757203 
L 347.219882 271.074071 
L 347.453447 270.629704 
L 347.687011 269.941921 
L 348.504487 268.44281 
L 348.971615 268.081254 
L 349.321962 268.107318 
L 349.438744 268.181314 
L 349.672309 268.757322 
L 350.956913 269.555625 
L 351.540824 269.510133 
L 351.774388 269.643175 
L 352.3583 269.541087 
L 352.475082 269.3351 
L 353.175775 269.576126 
L 353.292557 269.66455 
L 353.409339 269.287777 
L 353.642904 269.628607 
L 354.577162 270.253567 
L 355.161073 270.382805 
L 355.277855 270.343108 
L 355.394637 271.602487 
L 355.978548 270.941098 
L 356.212112 270.624841 
L 356.445677 265.797495 
L 356.562459 266.803896 
L 357.029588 265.896205 
L 357.379935 265.2258 
L 357.613499 264.716379 
L 357.963846 264.385869 
L 358.19741 264.271905 
L 358.314192 265.275024 
L 358.781321 265.160902 
L 359.131668 265.232252 
L 359.24845 264.823989 
L 359.482014 265.181459 
L 360.182708 265.596763 
L 361.000183 265.641538 
L 361.116965 265.590116 
L 361.233748 263.004449 
L 361.700876 262.953381 
L 362.284787 263.110122 
L 362.40157 262.679351 
L 362.635134 262.728772 
L 362.868698 263.306943 
L 362.985481 263.32349 
L 363.102263 262.883008 
L 363.219045 262.93738 
L 363.45261 263.175153 
L 364.737214 263.662154 
L 364.970778 263.798947 
L 365.08756 264.705958 
L 365.554689 264.636413 
L 365.671472 278.337077 
L 365.905036 279.081366 
L 366.021818 264.577411 
L 366.488947 264.634141 
L 366.839294 263.847282 
L 366.956076 263.997533 
L 367.18964 264.600401 
L 367.539987 264.583668 
L 367.890334 264.40928 
L 368.007116 266.44769 
L 368.123898 266.329576 
L 368.24068 266.629081 
L 368.824591 265.991349 
L 368.941373 266.170434 
L 369.408502 265.574427 
L 370.693107 264.232731 
L 370.926671 264.098697 
L 371.160235 263.499003 
L 371.977711 263.161128 
L 372.094493 263.135163 
L 372.211275 252.021026 
L 372.328058 263.071659 
L 372.44484 263.137788 
L 372.561622 262.341704 
L 372.795186 262.88317 
L 372.911969 262.412847 
L 373.49588 262.552978 
L 373.729444 262.526777 
L 373.846226 261.426902 
L 373.963009 261.387828 
L 374.196573 260.943389 
L 374.54692 260.84073 
L 374.663702 260.830196 
L 374.780484 261.096239 
L 374.897266 261.042499 
L 375.130831 260.684647 
L 375.714742 260.254491 
L 375.948306 259.714407 
L 376.648999 259.229559 
L 376.765782 259.470069 
L 376.999346 259.221347 
L 377.700039 258.986908 
L 378.28395 258.82697 
L 378.634297 258.828391 
L 378.751079 259.951706 
L 379.568555 259.972981 
L 379.685337 258.600991 
L 379.802119 258.624294 
L 379.918901 258.409454 
L 380.152466 258.50055 
L 380.38603 258.452854 
L 380.502812 258.495812 
L 380.736377 258.349848 
L 380.969941 258.670183 
L 381.553852 259.063889 
L 381.787417 259.643785 
L 382.020981 266.593478 
L 382.371328 267.654134 
L 382.48811 267.726302 
L 382.721674 268.308529 
L 382.955239 268.322916 
L 383.655932 267.674922 
L 384.239843 266.352661 
L 384.473407 259.889276 
L 384.59019 259.90501 
L 385.290883 257.913091 
L 385.758012 256.887438 
L 386.108358 256.493612 
L 386.341923 256.442905 
L 386.809052 257.178695 
L 387.392963 257.778079 
L 387.509745 257.449179 
L 388.210438 257.629605 
L 388.32722 257.620971 
L 388.560785 257.220865 
L 389.027914 256.807228 
L 389.261478 256.592427 
L 389.495043 250.428981 
L 390.078954 249.568204 
L 390.312518 249.217296 
L 390.546082 247.992418 
L 390.779647 247.793708 
L 390.896429 248.231473 
L 391.129993 248.312707 
L 391.363558 248.552419 
L 391.48034 248.712186 
L 391.713905 250.399726 
L 391.830687 250.59699 
L 392.064251 257.409463 
L 392.414598 259.110678 
L 392.764944 260.247086 
L 393.115291 260.843221 
L 393.232073 260.910994 
L 394.049549 259.890543 
L 394.63346 258.791641 
L 395.334153 257.095887 
L 395.450935 251.560489 
L 395.567717 251.48707 
L 395.801282 251.132633 
L 396.034846 251.220854 
L 396.151629 251.28408 
L 396.385193 251.798439 
L 396.852322 252.27952 
L 397.319451 253.123183 
L 397.436233 252.688757 
L 397.669797 258.116259 
L 397.903362 259.380302 
L 398.020144 259.565332 
L 398.136926 259.400856 
L 398.370491 259.503267 
L 398.487273 259.46337 
L 398.487273 259.46337 
" style="fill:none;stroke:#808080;stroke-linecap:square;stroke-width:1.5;"/>
   </g>
   <g id="line2d_18">
    <path clip-path="url(#pe7abc3938d)" d="M 73.832727 225.736844 
L 75.000549 226.313405 
L 75.117332 228.762784 
L 75.701243 229.160774 
L 75.818025 228.939882 
L 76.285154 229.092908 
L 76.518718 229.176981 
L 76.6355 229.053305 
L 77.219411 229.346367 
L 77.68654 229.562329 
L 78.620798 230.029402 
L 78.854362 230.162249 
L 78.971145 231.237148 
L 79.087927 231.269101 
L 79.321491 231.615466 
L 79.78862 231.65948 
L 80.83966 231.941862 
L 80.956442 233.541288 
L 81.306789 233.405976 
L 81.540353 233.254571 
L 81.773918 232.705467 
L 82.357829 232.348018 
L 82.474611 232.989561 
L 83.759215 232.155169 
L 84.693473 231.998207 
L 84.927037 231.72529 
L 85.160602 231.760786 
L 86.67877 231.330784 
L 86.795553 229.596452 
L 88.196939 229.163771 
L 88.430504 228.389115 
L 88.897632 228.34787 
L 89.014415 226.627594 
L 89.131197 227.471531 
L 89.247979 229.738277 
L 89.364761 229.108083 
L 89.481543 229.521743 
L 89.715108 231.948803 
L 90.065455 230.124651 
L 90.299019 232.091345 
L 90.532583 232.175113 
L 90.649366 233.245165 
L 90.88293 233.17563 
L 91.116494 233.07016 
L 91.350059 232.698013 
L 92.517881 230.257758 
L 92.751445 228.767773 
L 93.218574 228.727309 
L 93.685703 228.96636 
L 94.03605 229.209953 
L 94.269614 230.379401 
L 94.736743 230.628662 
L 95.320654 230.869837 
L 96.371694 231.588441 
L 96.605258 231.528594 
L 96.838823 231.573397 
L 97.305952 231.366432 
L 98.006645 231.020814 
L 98.356991 230.971063 
L 98.473774 232.45469 
L 99.87516 232.053529 
L 100.108725 231.636849 
L 101.042982 231.340143 
L 101.626893 231.213756 
L 101.743676 231.217298 
L 101.860458 231.875436 
L 102.210804 231.894956 
L 102.327587 231.053625 
L 102.911498 230.844411 
L 103.612191 230.451205 
L 104.07932 230.092682 
L 104.196102 230.021709 
L 104.429666 228.600337 
L 105.714271 227.911599 
L 105.831053 227.359252 
L 106.882093 227.616698 
L 108.283479 228.514845 
L 108.517044 228.783208 
L 108.984173 228.739886 
L 109.801648 228.241101 
L 110.035213 228.049154 
L 110.268777 226.673491 
L 111.203035 226.332355 
L 111.553381 226.253571 
L 111.670164 227.801468 
L 112.604421 227.126375 
L 113.188332 226.94241 
L 113.889026 226.948653 
L 114.005808 225.969688 
L 115.640759 226.102677 
L 115.874323 226.188714 
L 116.107888 227.304329 
L 117.158927 227.960167 
L 117.392492 228.144046 
L 117.509274 225.758183 
L 118.443532 226.550009 
L 118.910661 226.835571 
L 119.261007 227.011247 
L 119.377789 226.915884 
L 119.728136 227.101861 
L 119.844918 228.492971 
L 119.9617 228.540937 
L 120.078483 228.300678 
L 120.428829 228.295851 
L 120.779176 228.251495 
L 121.713434 228.400874 
L 121.830216 230.404249 
L 122.881256 230.579192 
L 123.231602 230.566374 
L 123.348385 231.965201 
L 125.567247 231.530222 
L 125.684029 230.582306 
L 127.552544 230.262218 
L 127.669326 228.90483 
L 128.603584 228.638819 
L 129.888188 227.996321 
L 130.939228 227.582214 
L 131.172793 227.204772 
L 131.406357 227.106063 
L 131.639922 226.542521 
L 131.873486 226.591183 
L 132.223833 226.519643 
L 133.391655 226.713501 
L 133.625219 226.425452 
L 134.325912 226.657512 
L 134.909823 226.986695 
L 135.026606 226.716125 
L 135.844081 226.994991 
L 136.778339 227.034267 
L 137.011903 227.360813 
L 137.245468 227.382688 
L 137.479032 228.067854 
L 137.712596 228.415078 
L 138.880419 228.903568 
L 139.230765 228.942302 
L 139.347547 228.034825 
L 140.748934 228.119305 
L 140.865716 228.696526 
L 142.15032 228.040438 
L 143.084578 227.85783 
L 143.20136 228.90148 
L 143.318143 228.87734 
L 143.434925 229.179562 
L 143.902054 229.112776 
L 144.018836 228.764792 
L 144.2524 231.676419 
L 144.485965 230.386526 
L 145.069876 230.65236 
L 145.420222 230.778738 
L 146.35448 230.598338 
L 146.471262 229.559128 
L 147.522302 229.703048 
L 147.989431 229.560593 
L 148.339778 229.45318 
L 148.45656 230.763052 
L 149.157253 230.478167 
L 150.208293 230.435977 
L 150.325075 227.23199 
L 150.792204 227.411138 
L 152.076808 227.878528 
L 152.193591 227.391384 
L 152.660719 227.503002 
L 152.777502 229.040746 
L 152.894284 232.307174 
L 153.011066 226.897461 
L 153.24463 229.620704 
L 153.478195 229.787717 
L 153.828542 229.592384 
L 154.062106 229.257221 
L 154.178888 228.455841 
L 154.412453 228.464563 
L 154.879581 229.025829 
L 155.463492 229.384754 
L 155.580275 229.436841 
L 155.813839 230.876185 
L 156.164186 231.118748 
L 156.514532 231.346953 
L 157.332008 231.674335 
L 157.565572 231.698273 
L 157.915919 231.619995 
L 158.149483 230.936964 
L 158.266266 230.969653 
L 158.850177 230.479615 
L 158.966959 231.668212 
L 159.083741 237.471076 
L 159.200523 226.129705 
L 159.434088 231.834827 
L 159.55087 230.456603 
L 160.017999 231.274593 
L 160.134781 231.438193 
L 160.251563 231.343754 
L 160.485128 231.510611 
L 161.302603 232.586165 
L 161.886514 232.985234 
L 162.70399 233.452164 
L 162.937554 233.481855 
L 163.521465 233.709254 
L 163.755029 233.979565 
L 164.33894 234.124582 
L 164.455723 234.130538 
L 164.689287 233.154138 
L 165.156416 232.806705 
L 165.740327 232.339443 
L 165.973891 232.222119 
L 166.090674 232.44703 
L 167.959189 231.877909 
L 168.309536 231.876197 
L 168.426318 230.943782 
L 168.5431 230.928504 
L 168.776664 231.131027 
L 169.360576 231.067677 
L 169.477358 231.604738 
L 169.944487 231.405379 
L 170.294833 231.148845 
L 170.528398 230.421522 
L 171.69622 230.164866 
L 171.813002 230.145533 
L 172.046566 229.049245 
L 174.148646 228.677338 
L 174.265428 227.952975 
L 175.199686 228.128952 
L 175.316468 227.94914 
L 176.133944 228.536521 
L 176.367508 229.45042 
L 176.834637 229.651495 
L 176.951419 229.176632 
L 177.418548 229.331241 
L 177.652112 229.328948 
L 177.768895 229.845554 
L 178.469588 229.611699 
L 179.403846 229.341654 
L 179.987757 229.075655 
L 180.221321 228.474234 
L 180.454886 228.065287 
L 180.805232 227.824138 
L 181.038797 227.722102 
L 181.155579 228.314262 
L 181.73949 228.020738 
L 182.556965 228.011336 
L 182.673748 228.021872 
L 182.79053 226.941656 
L 183.257659 226.991777 
L 183.491223 227.077461 
L 183.724787 227.260193 
L 184.542263 227.148485 
L 185.009392 227.186089 
L 185.476521 227.290081 
L 185.826867 227.377105 
L 185.943649 226.560455 
L 186.877907 227.271276 
L 187.111472 227.839521 
L 187.812165 228.25357 
L 188.045729 229.674698 
L 188.512858 229.878814 
L 188.62964 229.35617 
L 189.213551 229.723616 
L 189.330334 229.767843 
L 189.563898 230.180352 
L 190.264591 230.38825 
L 191.665978 231.39709 
L 191.78276 233.799563 
L 191.899542 233.866267 
L 192.133107 234.232764 
L 192.717018 234.458811 
L 192.8338 235.435595 
L 193.067364 235.360355 
L 193.651275 234.896197 
L 193.88484 233.615481 
L 194.351969 233.327983 
L 194.468751 233.79234 
L 195.169444 233.42889 
L 195.403009 232.790017 
L 196.103702 232.218141 
L 196.570831 231.977057 
L 197.505088 231.453625 
L 197.621871 231.724262 
L 198.322564 231.24756 
L 198.556128 231.123699 
L 198.67291 229.572705 
L 199.490386 229.072474 
L 199.607168 228.289137 
L 200.191079 228.163022 
L 200.307861 227.515709 
L 200.77499 227.391006 
L 201.242119 227.099602 
L 201.942812 227.267301 
L 202.760288 227.11537 
L 203.227417 227.001098 
L 203.344199 227.004182 
L 203.577763 226.093963 
L 203.811328 225.911245 
L 204.161674 225.916303 
L 204.395239 225.840789 
L 204.512021 225.354184 
L 205.095932 225.462719 
L 205.329496 225.587563 
L 205.563061 225.842664 
L 206.03019 225.914946 
L 206.146972 226.458682 
L 207.08123 226.501995 
L 207.431576 226.572273 
L 209.183309 226.634669 
L 209.300092 225.735314 
L 209.416874 225.781333 
L 209.650438 226.146785 
L 210.117567 226.342941 
L 210.234349 226.428419 
L 210.467914 227.338452 
L 210.935043 227.757763 
L 211.285389 228.266459 
L 211.8693 229.129851 
L 212.102865 229.956321 
L 212.686776 230.629126 
L 212.92034 231.651237 
L 213.387469 231.865873 
L 214.672073 232.006567 
L 215.02242 232.059891 
L 215.139202 233.597282 
L 215.956678 233.497595 
L 216.07346 233.483747 
L 216.190242 234.175577 
L 217.007717 233.844618 
L 217.1245 234.090663 
L 218.17554 233.369139 
L 218.525886 232.957452 
L 218.759451 232.056726 
L 219.343362 231.568676 
L 220.627966 230.863884 
L 220.86153 230.749177 
L 220.978313 229.33095 
L 221.095095 229.273826 
L 221.328659 228.875639 
L 221.795788 228.704265 
L 221.91257 228.643863 
L 222.146135 227.850315 
L 222.730046 227.751471 
L 222.846828 227.724734 
L 222.96361 226.744159 
L 223.430739 226.926614 
L 223.547521 227.010884 
L 223.664303 226.205059 
L 224.364997 226.703005 
L 224.598561 227.30371 
L 225.532819 227.734075 
L 225.999948 227.789166 
L 226.700641 227.630123 
L 226.817423 228.467609 
L 226.934205 228.456919 
L 227.050988 228.692118 
L 227.751681 228.45642 
L 227.868463 227.670342 
L 228.685939 227.398357 
L 228.802721 228.478204 
L 229.736978 227.853966 
L 230.204107 227.398191 
L 230.437672 226.384615 
L 230.788018 226.141115 
L 231.255147 226.112257 
L 232.072623 226.12797 
L 232.539751 226.06716 
L 232.656534 225.04878 
L 232.773316 225.035171 
L 232.890098 224.748779 
L 233.590791 224.730614 
L 233.707574 225.267661 
L 234.05792 225.146648 
L 234.525049 224.942371 
L 234.758613 224.185711 
L 235.225742 224.132332 
L 235.342525 223.141046 
L 236.043218 223.131067 
L 236.276782 223.357796 
L 237.794951 223.784018 
L 238.26208 224.154289 
L 238.378862 224.254217 
L 238.495644 223.869413 
L 238.612426 223.98543 
L 238.845991 224.463959 
L 239.429902 224.984823 
L 239.663466 226.135246 
L 240.36416 226.721747 
L 240.480942 226.24868 
L 241.064853 226.742856 
L 241.298417 227.913682 
L 241.882328 228.275888 
L 242.115893 228.685337 
L 242.466239 228.807264 
L 243.166933 229.052338 
L 244.217973 229.269654 
L 244.334755 232.992685 
L 244.451537 232.970696 
L 244.685101 233.055537 
L 245.269012 232.76501 
L 245.385795 233.00854 
L 245.852923 232.63013 
L 246.20327 232.28886 
L 246.436835 231.402573 
L 246.903963 231.201538 
L 247.020746 230.28795 
L 248.655697 230.653459 
L 250.057083 231.353919 
L 250.173865 229.327824 
L 250.290647 229.400887 
L 250.40743 229.216187 
L 251.108123 229.631114 
L 251.224905 228.599519 
L 251.692034 228.934061 
L 252.042381 229.226199 
L 252.159163 231.734485 
L 252.743074 232.002673 
L 252.976638 233.160443 
L 253.560549 233.335828 
L 253.794114 233.559376 
L 254.14446 233.574104 
L 254.728371 233.429059 
L 255.896194 232.966112 
L 256.012976 234.130899 
L 256.129758 234.023572 
L 256.24654 234.341064 
L 256.947233 233.660603 
L 257.180798 232.748802 
L 257.881491 232.383345 
L 258.115056 231.865121 
L 259.049313 231.415078 
L 259.39966 231.407221 
L 259.516442 230.929467 
L 260.917829 231.672124 
L 261.735304 231.876212 
L 261.852086 230.4861 
L 262.786344 230.092939 
L 262.903126 231.34321 
L 263.720602 230.976308 
L 263.954166 230.497606 
L 264.421295 230.089145 
L 264.654859 229.5014 
L 265.23877 229.229961 
L 265.355553 229.441322 
L 265.939464 229.20242 
L 267.34085 228.26669 
L 267.574415 228.115008 
L 267.691197 227.168018 
L 267.807979 227.139925 
L 268.041543 227.249534 
L 268.508672 227.266533 
L 268.625455 227.26886 
L 268.742237 226.500108 
L 269.559712 226.515933 
L 269.793277 226.79005 
L 270.260405 226.885053 
L 270.377188 226.081364 
L 271.077881 226.486703 
L 271.194663 226.316031 
L 271.895356 226.984502 
L 273.063179 227.876061 
L 273.413525 228.092563 
L 273.530307 229.114274 
L 273.880654 229.292005 
L 274.464565 229.366438 
L 274.581347 229.840913 
L 275.398823 229.763457 
L 275.515605 230.209463 
L 276.099516 230.027741 
L 276.216298 230.856088 
L 276.800209 230.342418 
L 276.916991 230.239465 
L 277.150556 229.95159 
L 277.851249 229.968743 
L 278.551942 229.899923 
L 279.252636 229.518745 
L 279.4862 229.023895 
L 279.602982 229.453952 
L 280.186893 229.481549 
L 280.303676 229.501003 
L 280.53724 229.428742 
L 281.237933 229.667625 
L 281.354716 228.576352 
L 281.938627 228.793446 
L 282.055409 228.401174 
L 282.756102 228.782068 
L 282.989666 229.291643 
L 285.091746 229.654834 
L 285.208528 230.408758 
L 285.325311 230.404697 
L 285.442093 229.659227 
L 286.142786 229.50385 
L 286.376351 229.761988 
L 287.077044 229.475754 
L 287.310608 229.590539 
L 287.777737 229.518069 
L 287.894519 230.535241 
L 288.595213 230.148886 
L 288.828777 229.832215 
L 291.164421 229.066128 
L 291.397986 229.154614 
L 291.981897 229.154141 
L 292.098679 228.106661 
L 292.565808 228.068906 
L 292.916154 228.077428 
L 293.149719 228.238864 
L 293.616848 228.345681 
L 293.73363 227.649533 
L 294.317541 227.94598 
L 294.551105 227.936803 
L 295.135016 227.791309 
L 296.069274 227.333241 
L 296.769967 227.534065 
L 296.88675 227.082593 
L 297.353878 227.114273 
L 297.821007 227.187642 
L 298.054572 227.884598 
L 298.638483 228.11792 
L 299.339176 228.478295 
L 299.455958 228.498643 
L 299.689523 228.687091 
L 301.558038 228.683475 
L 302.025167 228.609239 
L 302.609078 228.635389 
L 302.842642 228.885891 
L 303.543336 229.205704 
L 304.477593 229.429526 
L 304.594375 229.401567 
L 304.711158 229.05046 
L 305.178286 229.033391 
L 305.295069 228.980995 
L 305.411851 229.369892 
L 306.112544 229.076108 
L 306.229326 229.245607 
L 308.448188 228.307954 
L 308.564971 227.662372 
L 308.681753 227.664438 
L 308.915317 227.405209 
L 309.499228 227.495366 
L 309.61601 226.751912 
L 310.433486 226.677716 
L 310.66705 226.804729 
L 311.134179 226.713593 
L 311.367744 226.377905 
L 312.185219 225.894066 
L 312.418784 225.794313 
L 312.885912 225.880762 
L 314.053734 226.24638 
L 314.287299 226.222321 
L 314.404081 226.344032 
L 314.87121 226.218098 
L 315.221557 226.203423 
L 315.338339 226.152295 
L 315.571903 226.705684 
L 315.92225 226.729031 
L 316.272596 226.873646 
L 316.389379 226.562622 
L 316.97329 226.853119 
L 317.090072 226.23188 
L 317.673983 226.789405 
L 317.790765 226.893313 
L 318.02433 227.364087 
L 318.374676 227.422378 
L 318.841805 227.269294 
L 319.308934 227.03867 
L 320.126409 226.873535 
L 320.243192 226.081786 
L 320.359974 226.096173 
L 320.593538 225.957153 
L 321.177449 225.96521 
L 321.294232 226.780406 
L 322.111707 226.550736 
L 322.228489 227.096667 
L 322.8124 227.102559 
L 323.045965 227.29954 
L 323.629876 227.176002 
L 323.746658 228.013463 
L 324.330569 227.634099 
L 325.148044 226.949516 
L 325.96552 226.416515 
L 326.199084 225.979034 
L 326.432649 225.929877 
L 327.01656 225.608259 
L 327.133342 223.941094 
L 327.600471 223.860903 
L 327.950818 223.780006 
L 328.0676 223.028806 
L 328.534729 223.081539 
L 328.651511 223.134495 
L 328.768293 221.996371 
L 329.11864 222.297331 
L 329.468986 222.588045 
L 329.585768 221.392117 
L 331.103937 221.983575 
L 331.337502 237.695519 
L 331.454284 233.509882 
L 331.571066 236.224918 
L 332.038195 233.264 
L 332.388542 232.065195 
L 332.972453 230.496004 
L 333.206017 230.311765 
L 334.023492 229.12011 
L 334.724186 228.632259 
L 335.308097 228.550581 
L 335.424879 227.49969 
L 335.541661 227.482043 
L 335.658443 227.825054 
L 336.359137 227.568018 
L 336.475919 229.053514 
L 336.826266 228.755175 
L 337.05983 224.002675 
L 337.293394 224.679914 
L 337.410177 224.637226 
L 337.643741 225.107601 
L 337.877305 225.306031 
L 339.862603 227.345145 
L 341.147207 228.412751 
L 341.380772 229.932657 
L 341.497554 229.635236 
L 342.198247 230.005976 
L 342.315029 229.392508 
L 342.89894 229.683111 
L 343.015723 231.353825 
L 343.132505 231.269004 
L 343.249287 231.446851 
L 343.716416 231.131422 
L 344.533891 230.48855 
L 344.650674 224.026329 
L 344.767456 243.170747 
L 344.884238 229.15078 
L 345.00102 231.549933 
L 345.234585 227.963293 
L 345.351367 227.845013 
L 345.935278 226.178242 
L 346.519189 224.418383 
L 346.752753 223.259032 
L 347.453447 223.291416 
L 347.570229 222.44711 
L 347.803793 222.678537 
L 349.088398 223.151798 
L 349.905873 223.914092 
L 350.723349 224.265218 
L 351.540824 224.445072 
L 351.774388 224.730586 
L 352.3583 224.767368 
L 352.475082 224.532095 
L 353.292557 225.020293 
L 353.526122 225.82183 
L 354.810726 226.587141 
L 355.04429 226.783304 
L 355.744984 226.805732 
L 356.445677 226.701741 
L 356.562459 228.140127 
L 357.14637 228.088322 
L 357.496717 227.308344 
L 358.19741 227.381448 
L 358.314192 228.966801 
L 358.898103 228.739986 
L 359.131668 228.642903 
L 359.24845 227.722235 
L 359.482014 227.966493 
L 361.000183 228.076523 
L 361.467312 227.993782 
L 362.284787 227.912354 
L 362.40157 227.410028 
L 362.985481 227.37793 
L 363.102263 226.434173 
L 363.219045 226.433626 
L 363.335827 226.780352 
L 363.802956 226.71447 
L 364.036521 226.723972 
L 364.270085 226.452783 
L 364.970778 226.63001 
L 365.08756 227.852909 
L 365.671472 227.762519 
L 366.021818 227.751111 
L 366.488947 227.884624 
L 366.605729 227.328932 
L 367.423205 227.794816 
L 367.773551 227.951362 
L 368.123898 227.984826 
L 368.24068 228.460308 
L 368.824591 228.43472 
L 369.058156 228.961434 
L 369.408502 228.814563 
L 370.926671 228.704609 
L 371.160235 228.24647 
L 372.911969 227.987543 
L 373.49588 228.119432 
L 373.963009 228.023143 
L 374.196573 227.529402 
L 374.54692 227.454613 
L 374.663702 227.471302 
L 374.780484 227.964065 
L 374.897266 227.961919 
L 375.014048 227.520045 
L 375.481177 227.487721 
L 375.714742 227.436955 
L 375.948306 226.7055 
L 376.532217 226.690175 
L 376.648999 226.669767 
L 376.765782 227.213306 
L 376.999346 227.034808 
L 377.700039 226.957817 
L 378.867861 227.127443 
L 379.568555 227.486664 
L 379.802119 227.573949 
L 379.918901 227.360035 
L 380.502812 227.7017 
L 380.619595 227.397262 
L 380.736377 227.450212 
L 380.969941 227.854492 
L 381.553852 228.100108 
L 381.670634 228.840753 
L 382.371328 228.834154 
L 382.48811 228.838362 
L 382.604892 228.608593 
L 382.721674 228.82195 
L 384.006279 228.060896 
L 384.123061 228.116131 
L 384.59019 227.870851 
L 385.290883 227.752593 
L 386.108358 227.510293 
L 386.341923 227.523115 
L 386.458705 227.88719 
L 386.575487 227.885334 
L 386.809052 228.291528 
L 387.392963 228.44032 
L 387.509745 227.69129 
L 388.32722 227.647398 
L 388.560785 226.692101 
L 389.261478 226.867652 
L 389.962171 227.261478 
L 390.4293 227.409718 
L 390.896429 227.44827 
L 391.48034 227.429568 
L 391.597122 229.109801 
L 392.064251 229.05638 
L 392.414598 229.097148 
L 392.648162 229.35076 
L 393.232073 229.591964 
L 393.465638 229.475493 
L 394.166331 229.44765 
L 394.399895 229.957121 
L 395.217371 229.723066 
L 395.801282 229.653032 
L 397.319451 229.725542 
L 397.436233 228.917457 
L 398.020144 228.759546 
L 398.253708 228.146426 
L 398.487273 228.186339 
L 398.487273 228.186339 
" style="fill:none;stroke:#000000;stroke-linecap:square;stroke-width:1.5;"/>
   </g>
   <g id="patch_3">
    <path d="M 57.6 307.584 
L 57.6 41.472 
" style="fill:none;stroke:#000000;stroke-linecap:square;stroke-linejoin:miter;stroke-width:0.8;"/>
   </g>
   <g id="patch_4">
    <path d="M 414.72 307.584 
L 414.72 41.472 
" style="fill:none;stroke:#000000;stroke-linecap:square;stroke-linejoin:miter;stroke-width:0.8;"/>
   </g>
   <g id="patch_5">
    <path d="M 57.6 307.584 
L 414.72 307.584 
" style="fill:none;stroke:#000000;stroke-linecap:square;stroke-linejoin:miter;stroke-width:0.8;"/>
   </g>
   <g id="patch_6">
    <path d="M 57.6 41.472 
L 414.72 41.472 
" style="fill:none;stroke:#000000;stroke-linecap:square;stroke-linejoin:miter;stroke-width:0.8;"/>
   </g>
   <g id="legend_1">
    <g id="patch_7">
     <path d="M 136.00125 93.506375 
L 407.72 93.506375 
Q 409.72 93.506375 409.72 91.506375 
L 409.72 48.472 
Q 409.72 46.472 407.72 46.472 
L 136.00125 46.472 
Q 134.00125 46.472 134.00125 48.472 
L 134.00125 91.506375 
Q 134.00125 93.506375 136.00125 93.506375 
z
" style="fill:#ffffff;opacity:0.8;stroke:#cccccc;stroke-linejoin:miter;"/>
    </g>
    <g id="line2d_19">
     <path d="M 138.00125 54.570438 
L 158.00125 54.570438 
" style="fill:none;stroke:#000000;stroke-dasharray:5.55,2.4;stroke-dashoffset:0;stroke-width:1.5;"/>
    </g>
    <g id="line2d_20"/>
    <g id="text_17">
     <!-- 5% Indicators -->
     <g transform="translate(166.00125 58.070438)scale(0.1 -0.1)">
      <defs>
       <path d="M 9.8125 72.90625 
L 19.671875 72.90625 
L 19.671875 0 
L 9.8125 0 
z
" id="DejaVuSans-73"/>
      </defs>
      <use xlink:href="#DejaVuSans-53"/>
      <use x="63.623047" xlink:href="#DejaVuSans-37"/>
      <use x="158.642578" xlink:href="#DejaVuSans-32"/>
      <use x="190.429688" xlink:href="#DejaVuSans-73"/>
      <use x="219.921875" xlink:href="#DejaVuSans-110"/>
      <use x="283.300781" xlink:href="#DejaVuSans-100"/>
      <use x="346.777344" xlink:href="#DejaVuSans-105"/>
      <use x="374.560547" xlink:href="#DejaVuSans-99"/>
      <use x="429.541016" xlink:href="#DejaVuSans-97"/>
      <use x="490.820312" xlink:href="#DejaVuSans-116"/>
      <use x="530.029297" xlink:href="#DejaVuSans-111"/>
      <use x="591.210938" xlink:href="#DejaVuSans-114"/>
      <use x="632.324219" xlink:href="#DejaVuSans-115"/>
     </g>
    </g>
    <g id="line2d_21">
     <path d="M 138.00125 69.248563 
L 158.00125 69.248563 
" style="fill:none;stroke:#808080;stroke-linecap:square;stroke-width:1.5;"/>
    </g>
    <g id="line2d_22"/>
    <g id="text_18">
     <!-- Without Any Correction -->
     <g transform="translate(166.00125 72.748563)scale(0.1 -0.1)">
      <defs>
       <path d="M 3.328125 72.90625 
L 13.28125 72.90625 
L 28.609375 11.28125 
L 43.890625 72.90625 
L 54.984375 72.90625 
L 70.3125 11.28125 
L 85.59375 72.90625 
L 95.609375 72.90625 
L 77.296875 0 
L 64.890625 0 
L 49.515625 63.28125 
L 33.984375 0 
L 21.578125 0 
z
" id="DejaVuSans-87"/>
       <path d="M 54.890625 33.015625 
L 54.890625 0 
L 45.90625 0 
L 45.90625 32.71875 
Q 45.90625 40.484375 42.875 44.328125 
Q 39.84375 48.1875 33.796875 48.1875 
Q 26.515625 48.1875 22.3125 43.546875 
Q 18.109375 38.921875 18.109375 30.90625 
L 18.109375 0 
L 9.078125 0 
L 9.078125 75.984375 
L 18.109375 75.984375 
L 18.109375 46.1875 
Q 21.34375 51.125 25.703125 53.5625 
Q 30.078125 56 35.796875 56 
Q 45.21875 56 50.046875 50.171875 
Q 54.890625 44.34375 54.890625 33.015625 
z
" id="DejaVuSans-104"/>
       <path d="M 8.5 21.578125 
L 8.5 54.6875 
L 17.484375 54.6875 
L 17.484375 21.921875 
Q 17.484375 14.15625 20.5 10.265625 
Q 23.53125 6.390625 29.59375 6.390625 
Q 36.859375 6.390625 41.078125 11.03125 
Q 45.3125 15.671875 45.3125 23.6875 
L 45.3125 54.6875 
L 54.296875 54.6875 
L 54.296875 0 
L 45.3125 0 
L 45.3125 8.40625 
Q 42.046875 3.421875 37.71875 1 
Q 33.40625 -1.421875 27.6875 -1.421875 
Q 18.265625 -1.421875 13.375 4.4375 
Q 8.5 10.296875 8.5 21.578125 
z
M 31.109375 56 
z
" id="DejaVuSans-117"/>
       <path d="M 34.1875 63.1875 
L 20.796875 26.90625 
L 47.609375 26.90625 
z
M 28.609375 72.90625 
L 39.796875 72.90625 
L 67.578125 0 
L 57.328125 0 
L 50.6875 18.703125 
L 17.828125 18.703125 
L 11.1875 0 
L 0.78125 0 
z
" id="DejaVuSans-65"/>
       <path d="M 32.171875 -5.078125 
Q 28.375 -14.84375 24.75 -17.8125 
Q 21.140625 -20.796875 15.09375 -20.796875 
L 7.90625 -20.796875 
L 7.90625 -13.28125 
L 13.1875 -13.28125 
Q 16.890625 -13.28125 18.9375 -11.515625 
Q 21 -9.765625 23.484375 -3.21875 
L 25.09375 0.875 
L 2.984375 54.6875 
L 12.5 54.6875 
L 29.59375 11.921875 
L 46.6875 54.6875 
L 56.203125 54.6875 
z
" id="DejaVuSans-121"/>
       <path d="M 64.40625 67.28125 
L 64.40625 56.890625 
Q 59.421875 61.53125 53.78125 63.8125 
Q 48.140625 66.109375 41.796875 66.109375 
Q 29.296875 66.109375 22.65625 58.46875 
Q 16.015625 50.828125 16.015625 36.375 
Q 16.015625 21.96875 22.65625 14.328125 
Q 29.296875 6.6875 41.796875 6.6875 
Q 48.140625 6.6875 53.78125 8.984375 
Q 59.421875 11.28125 64.40625 15.921875 
L 64.40625 5.609375 
Q 59.234375 2.09375 53.4375 0.328125 
Q 47.65625 -1.421875 41.21875 -1.421875 
Q 24.65625 -1.421875 15.125 8.703125 
Q 5.609375 18.84375 5.609375 36.375 
Q 5.609375 53.953125 15.125 64.078125 
Q 24.65625 74.21875 41.21875 74.21875 
Q 47.75 74.21875 53.53125 72.484375 
Q 59.328125 70.75 64.40625 67.28125 
z
" id="DejaVuSans-67"/>
      </defs>
      <use xlink:href="#DejaVuSans-87"/>
      <use x="96.626953" xlink:href="#DejaVuSans-105"/>
      <use x="124.410156" xlink:href="#DejaVuSans-116"/>
      <use x="163.619141" xlink:href="#DejaVuSans-104"/>
      <use x="226.998047" xlink:href="#DejaVuSans-111"/>
      <use x="288.179688" xlink:href="#DejaVuSans-117"/>
      <use x="351.558594" xlink:href="#DejaVuSans-116"/>
      <use x="390.767578" xlink:href="#DejaVuSans-32"/>
      <use x="422.554688" xlink:href="#DejaVuSans-65"/>
      <use x="490.962891" xlink:href="#DejaVuSans-110"/>
      <use x="554.341797" xlink:href="#DejaVuSans-121"/>
      <use x="613.521484" xlink:href="#DejaVuSans-32"/>
      <use x="645.308594" xlink:href="#DejaVuSans-67"/>
      <use x="715.132812" xlink:href="#DejaVuSans-111"/>
      <use x="776.314453" xlink:href="#DejaVuSans-114"/>
      <use x="815.677734" xlink:href="#DejaVuSans-114"/>
      <use x="854.541016" xlink:href="#DejaVuSans-101"/>
      <use x="916.064453" xlink:href="#DejaVuSans-99"/>
      <use x="971.044922" xlink:href="#DejaVuSans-116"/>
      <use x="1010.253906" xlink:href="#DejaVuSans-105"/>
      <use x="1038.037109" xlink:href="#DejaVuSans-111"/>
      <use x="1099.21875" xlink:href="#DejaVuSans-110"/>
     </g>
    </g>
    <g id="line2d_23">
     <path d="M 138.00125 83.926688 
L 158.00125 83.926688 
" style="fill:none;stroke:#000000;stroke-linecap:square;stroke-width:1.5;"/>
    </g>
    <g id="line2d_24"/>
    <g id="text_19">
     <!-- With ION and Cut-off Elevation Angle Correction -->
     <g transform="translate(166.00125 87.426688)scale(0.1 -0.1)">
      <defs>
       <path d="M 39.40625 66.21875 
Q 28.65625 66.21875 22.328125 58.203125 
Q 16.015625 50.203125 16.015625 36.375 
Q 16.015625 22.609375 22.328125 14.59375 
Q 28.65625 6.59375 39.40625 6.59375 
Q 50.140625 6.59375 56.421875 14.59375 
Q 62.703125 22.609375 62.703125 36.375 
Q 62.703125 50.203125 56.421875 58.203125 
Q 50.140625 66.21875 39.40625 66.21875 
z
M 39.40625 74.21875 
Q 54.734375 74.21875 63.90625 63.9375 
Q 73.09375 53.65625 73.09375 36.375 
Q 73.09375 19.140625 63.90625 8.859375 
Q 54.734375 -1.421875 39.40625 -1.421875 
Q 24.03125 -1.421875 14.8125 8.828125 
Q 5.609375 19.09375 5.609375 36.375 
Q 5.609375 53.65625 14.8125 63.9375 
Q 24.03125 74.21875 39.40625 74.21875 
z
" id="DejaVuSans-79"/>
       <path d="M 9.8125 72.90625 
L 23.09375 72.90625 
L 55.421875 11.921875 
L 55.421875 72.90625 
L 64.984375 72.90625 
L 64.984375 0 
L 51.703125 0 
L 19.390625 60.984375 
L 19.390625 0 
L 9.8125 0 
z
" id="DejaVuSans-78"/>
       <path d="M 4.890625 31.390625 
L 31.203125 31.390625 
L 31.203125 23.390625 
L 4.890625 23.390625 
z
" id="DejaVuSans-45"/>
       <path d="M 37.109375 75.984375 
L 37.109375 68.5 
L 28.515625 68.5 
Q 23.6875 68.5 21.796875 66.546875 
Q 19.921875 64.59375 19.921875 59.515625 
L 19.921875 54.6875 
L 34.71875 54.6875 
L 34.71875 47.703125 
L 19.921875 47.703125 
L 19.921875 0 
L 10.890625 0 
L 10.890625 47.703125 
L 2.296875 47.703125 
L 2.296875 54.6875 
L 10.890625 54.6875 
L 10.890625 58.5 
Q 10.890625 67.625 15.140625 71.796875 
Q 19.390625 75.984375 28.609375 75.984375 
z
" id="DejaVuSans-102"/>
       <path d="M 9.421875 75.984375 
L 18.40625 75.984375 
L 18.40625 0 
L 9.421875 0 
z
" id="DejaVuSans-108"/>
       <path d="M 2.984375 54.6875 
L 12.5 54.6875 
L 29.59375 8.796875 
L 46.6875 54.6875 
L 56.203125 54.6875 
L 35.6875 0 
L 23.484375 0 
z
" id="DejaVuSans-118"/>
       <path d="M 45.40625 27.984375 
Q 45.40625 37.75 41.375 43.109375 
Q 37.359375 48.484375 30.078125 48.484375 
Q 22.859375 48.484375 18.828125 43.109375 
Q 14.796875 37.75 14.796875 27.984375 
Q 14.796875 18.265625 18.828125 12.890625 
Q 22.859375 7.515625 30.078125 7.515625 
Q 37.359375 7.515625 41.375 12.890625 
Q 45.40625 18.265625 45.40625 27.984375 
z
M 54.390625 6.78125 
Q 54.390625 -7.171875 48.1875 -13.984375 
Q 42 -20.796875 29.203125 -20.796875 
Q 24.46875 -20.796875 20.265625 -20.09375 
Q 16.0625 -19.390625 12.109375 -17.921875 
L 12.109375 -9.1875 
Q 16.0625 -11.328125 19.921875 -12.34375 
Q 23.78125 -13.375 27.78125 -13.375 
Q 36.625 -13.375 41.015625 -8.765625 
Q 45.40625 -4.15625 45.40625 5.171875 
L 45.40625 9.625 
Q 42.625 4.78125 38.28125 2.390625 
Q 33.9375 0 27.875 0 
Q 17.828125 0 11.671875 7.65625 
Q 5.515625 15.328125 5.515625 27.984375 
Q 5.515625 40.671875 11.671875 48.328125 
Q 17.828125 56 27.875 56 
Q 33.9375 56 38.28125 53.609375 
Q 42.625 51.21875 45.40625 46.390625 
L 45.40625 54.6875 
L 54.390625 54.6875 
z
" id="DejaVuSans-103"/>
      </defs>
      <use xlink:href="#DejaVuSans-87"/>
      <use x="96.626953" xlink:href="#DejaVuSans-105"/>
      <use x="124.410156" xlink:href="#DejaVuSans-116"/>
      <use x="163.619141" xlink:href="#DejaVuSans-104"/>
      <use x="226.998047" xlink:href="#DejaVuSans-32"/>
      <use x="258.785156" xlink:href="#DejaVuSans-73"/>
      <use x="288.277344" xlink:href="#DejaVuSans-79"/>
      <use x="366.988281" xlink:href="#DejaVuSans-78"/>
      <use x="441.792969" xlink:href="#DejaVuSans-32"/>
      <use x="473.580078" xlink:href="#DejaVuSans-97"/>
      <use x="534.859375" xlink:href="#DejaVuSans-110"/>
      <use x="598.238281" xlink:href="#DejaVuSans-100"/>
      <use x="661.714844" xlink:href="#DejaVuSans-32"/>
      <use x="693.501953" xlink:href="#DejaVuSans-67"/>
      <use x="763.326172" xlink:href="#DejaVuSans-117"/>
      <use x="826.705078" xlink:href="#DejaVuSans-116"/>
      <use x="865.914062" xlink:href="#DejaVuSans-45"/>
      <use x="903.873047" xlink:href="#DejaVuSans-111"/>
      <use x="965.054688" xlink:href="#DejaVuSans-102"/>
      <use x="1000.259766" xlink:href="#DejaVuSans-102"/>
      <use x="1035.464844" xlink:href="#DejaVuSans-32"/>
      <use x="1067.251953" xlink:href="#DejaVuSans-69"/>
      <use x="1130.435547" xlink:href="#DejaVuSans-108"/>
      <use x="1158.21875" xlink:href="#DejaVuSans-101"/>
      <use x="1219.742188" xlink:href="#DejaVuSans-118"/>
      <use x="1278.921875" xlink:href="#DejaVuSans-97"/>
      <use x="1340.201172" xlink:href="#DejaVuSans-116"/>
      <use x="1379.410156" xlink:href="#DejaVuSans-105"/>
      <use x="1407.193359" xlink:href="#DejaVuSans-111"/>
      <use x="1468.375" xlink:href="#DejaVuSans-110"/>
      <use x="1531.753906" xlink:href="#DejaVuSans-32"/>
      <use x="1563.541016" xlink:href="#DejaVuSans-65"/>
      <use x="1631.949219" xlink:href="#DejaVuSans-110"/>
      <use x="1695.328125" xlink:href="#DejaVuSans-103"/>
      <use x="1758.804688" xlink:href="#DejaVuSans-108"/>
      <use x="1786.587891" xlink:href="#DejaVuSans-101"/>
      <use x="1848.111328" xlink:href="#DejaVuSans-32"/>
      <use x="1879.898438" xlink:href="#DejaVuSans-67"/>
      <use x="1949.722656" xlink:href="#DejaVuSans-111"/>
      <use x="2010.904297" xlink:href="#DejaVuSans-114"/>
      <use x="2050.267578" xlink:href="#DejaVuSans-114"/>
      <use x="2089.130859" xlink:href="#DejaVuSans-101"/>
      <use x="2150.654297" xlink:href="#DejaVuSans-99"/>
      <use x="2205.634766" xlink:href="#DejaVuSans-116"/>
      <use x="2244.84375" xlink:href="#DejaVuSans-105"/>
      <use x="2272.626953" xlink:href="#DejaVuSans-111"/>
      <use x="2333.808594" xlink:href="#DejaVuSans-110"/>
     </g>
    </g>
   </g>
  </g>
 </g>
 <defs>
  <clipPath id="pe7abc3938d">
   <rect height="266.112" width="357.12" x="57.6" y="41.472"/>
  </clipPath>
 </defs>
</svg>
